M48
; DRILL file {KiCad (6.0.7)} date Fri Sep 23 10:32:04 2022
; FORMAT={-:-/ absolute / inch / decimal}
; #@! TF.CreationDate,2022-09-23T10:32:04+02:00
; #@! TF.GenerationSoftware,Kicad,Pcbnew,(6.0.7)
; #@! TF.FileFunction,Plated,1,2,PTH
FMAT,2
INCH
; #@! TA.AperFunction,Plated,PTH,ComponentDrill
T1C0.0197
; #@! TA.AperFunction,Plated,PTH,ComponentDrill
T2C0.0598
; #@! TA.AperFunction,Plated,PTH,ComponentDrill
T3C0.1260
%
G90
G05
T1
X0.0555Y-0.15
X0.0555Y-2.1
X0.0832Y-0.0832
X0.0832Y-0.2168
X0.0832Y-2.0332
X0.0832Y-2.1668
X0.15Y-0.0555
X0.15Y-0.2445
X0.15Y-2.0055
X0.15Y-2.1945
X0.2168Y-0.0832
X0.2168Y-0.2168
X0.2168Y-2.0332
X0.2168Y-2.1668
X0.2445Y-0.15
X0.2445Y-2.1
X1.3555Y-0.15
X1.3555Y-2.1
X1.3832Y-0.0832
X1.3832Y-0.2168
X1.3832Y-2.0332
X1.3832Y-2.1668
X1.45Y-0.0555
X1.45Y-0.2445
X1.45Y-2.0055
X1.45Y-2.1945
X1.5168Y-0.0832
X1.5168Y-0.2168
X1.5168Y-2.0332
X1.5168Y-2.1668
X1.5445Y-0.15
X1.5445Y-2.1
T2
X0.7Y-0.15
X0.9Y-0.15
T3
X0.15Y-0.15
X0.15Y-2.1
X1.45Y-0.15
X1.45Y-2.1
T0
M30
