%TF.GenerationSoftware,KiCad,Pcbnew,(6.0.7)*%
%TF.CreationDate,2022-09-23T10:31:46+02:00*%
%TF.ProjectId,GL019_LED_test,474c3031-395f-44c4-9544-5f746573742e,rev?*%
%TF.SameCoordinates,PX7df6180PY2cd02b0*%
%TF.FileFunction,Paste,Top*%
%TF.FilePolarity,Positive*%
%FSLAX46Y46*%
G04 Gerber Fmt 4.6, Leading zero omitted, Abs format (unit mm)*
G04 Created by KiCad (PCBNEW (6.0.7)) date 2022-09-23 10:31:46*
%MOMM*%
%LPD*%
G01*
G04 APERTURE LIST*
G04 Aperture macros list*
%AMRoundRect*
0 Rectangle with rounded corners*
0 $1 Rounding radius*
0 $2 $3 $4 $5 $6 $7 $8 $9 X,Y pos of 4 corners*
0 Add a 4 corners polygon primitive as box body*
4,1,4,$2,$3,$4,$5,$6,$7,$8,$9,$2,$3,0*
0 Add four circle primitives for the rounded corners*
1,1,$1+$1,$2,$3*
1,1,$1+$1,$4,$5*
1,1,$1+$1,$6,$7*
1,1,$1+$1,$8,$9*
0 Add four rect primitives between the rounded corners*
20,1,$1+$1,$2,$3,$4,$5,0*
20,1,$1+$1,$4,$5,$6,$7,0*
20,1,$1+$1,$6,$7,$8,$9,0*
20,1,$1+$1,$8,$9,$2,$3,0*%
G04 Aperture macros list end*
%ADD10RoundRect,0.237500X-0.287500X-0.237500X0.287500X-0.237500X0.287500X0.237500X-0.287500X0.237500X0*%
%ADD11RoundRect,0.237500X-0.250000X-0.237500X0.250000X-0.237500X0.250000X0.237500X-0.250000X0.237500X0*%
%ADD12RoundRect,0.250000X-0.350000X-0.450000X0.350000X-0.450000X0.350000X0.450000X-0.350000X0.450000X0*%
%ADD13RoundRect,0.250000X-0.325000X-0.450000X0.325000X-0.450000X0.325000X0.450000X-0.325000X0.450000X0*%
G04 APERTURE END LIST*
D10*
%TO.C,D2*%
X37225000Y-16510000D03*
X38975000Y-16510000D03*
%TD*%
D11*
%TO.C,R14*%
X21947500Y-26670000D03*
X23772500Y-26670000D03*
%TD*%
D12*
%TO.C,R28*%
X6620000Y-31750000D03*
X8620000Y-31750000D03*
%TD*%
%TO.C,R12*%
X26940000Y-31750000D03*
X28940000Y-31750000D03*
%TD*%
D10*
%TO.C,D30*%
X1665000Y-16510000D03*
X3415000Y-16510000D03*
%TD*%
%TO.C,D6*%
X32145000Y-16510000D03*
X33895000Y-16510000D03*
%TD*%
D12*
%TO.C,R16*%
X21860000Y-31750000D03*
X23860000Y-31750000D03*
%TD*%
D13*
%TO.C,D28*%
X6595000Y-21590000D03*
X8645000Y-21590000D03*
%TD*%
%TO.C,D20*%
X16755000Y-21590000D03*
X18805000Y-21590000D03*
%TD*%
D11*
%TO.C,R22*%
X11787500Y-26670000D03*
X13612500Y-26670000D03*
%TD*%
D10*
%TO.C,D10*%
X27065000Y-16510000D03*
X28815000Y-16510000D03*
%TD*%
D13*
%TO.C,D16*%
X21835000Y-21590000D03*
X23885000Y-21590000D03*
%TD*%
D12*
%TO.C,R4*%
X37100000Y-31750000D03*
X39100000Y-31750000D03*
%TD*%
D10*
%TO.C,D22*%
X11825000Y-16510000D03*
X13575000Y-16510000D03*
%TD*%
D11*
%TO.C,R6*%
X32107500Y-26670000D03*
X33932500Y-26670000D03*
%TD*%
D10*
%TO.C,D26*%
X6745000Y-16510000D03*
X8495000Y-16510000D03*
%TD*%
%TO.C,D14*%
X21985000Y-16510000D03*
X23735000Y-16510000D03*
%TD*%
%TO.C,D18*%
X16905000Y-16510000D03*
X18655000Y-16510000D03*
%TD*%
D12*
%TO.C,R32*%
X1540000Y-31750000D03*
X3540000Y-31750000D03*
%TD*%
D13*
%TO.C,D24*%
X11675000Y-21590000D03*
X13725000Y-21590000D03*
%TD*%
D12*
%TO.C,R24*%
X11700000Y-31750000D03*
X13700000Y-31750000D03*
%TD*%
D11*
%TO.C,R30*%
X1627500Y-26670000D03*
X3452500Y-26670000D03*
%TD*%
%TO.C,R26*%
X6707500Y-26670000D03*
X8532500Y-26670000D03*
%TD*%
%TO.C,R18*%
X16867500Y-26670000D03*
X18692500Y-26670000D03*
%TD*%
%TO.C,R2*%
X37187500Y-26670000D03*
X39012500Y-26670000D03*
%TD*%
D12*
%TO.C,R8*%
X32020000Y-31750000D03*
X34020000Y-31750000D03*
%TD*%
D13*
%TO.C,D4*%
X37075000Y-21590000D03*
X39125000Y-21590000D03*
%TD*%
D12*
%TO.C,R20*%
X16780000Y-31750000D03*
X18780000Y-31750000D03*
%TD*%
D11*
%TO.C,R10*%
X27027500Y-26670000D03*
X28852500Y-26670000D03*
%TD*%
D13*
%TO.C,D32*%
X1515000Y-21590000D03*
X3565000Y-21590000D03*
%TD*%
%TO.C,D12*%
X26915000Y-21590000D03*
X28965000Y-21590000D03*
%TD*%
%TO.C,D8*%
X31995000Y-21590000D03*
X34045000Y-21590000D03*
%TD*%
M02*
