%TF.GenerationSoftware,KiCad,Pcbnew,(6.0.7)*%
%TF.CreationDate,2022-09-23T10:31:46+02:00*%
%TF.ProjectId,GL019_LED_test,474c3031-395f-44c4-9544-5f746573742e,rev?*%
%TF.SameCoordinates,PX7df6180PY2cd02b0*%
%TF.FileFunction,Legend,Bot*%
%TF.FilePolarity,Positive*%
%FSLAX46Y46*%
G04 Gerber Fmt 4.6, Leading zero omitted, Abs format (unit mm)*
G04 Created by KiCad (PCBNEW (6.0.7)) date 2022-09-23 10:31:46*
%MOMM*%
%LPD*%
G01*
G04 APERTURE LIST*
%ADD10C,0.010000*%
G04 APERTURE END LIST*
%TO.C,Ref\u002A\u002A*%
G36*
X25276505Y-19849371D02*
G01*
X25286601Y-19867050D01*
X25285700Y-19909367D01*
X25271400Y-19931572D01*
X25248329Y-19922795D01*
X25238232Y-19905116D01*
X25239133Y-19862800D01*
X25253433Y-19840595D01*
X25276505Y-19849371D01*
G37*
D10*
X25276505Y-19849371D02*
X25286601Y-19867050D01*
X25285700Y-19909367D01*
X25271400Y-19931572D01*
X25248329Y-19922795D01*
X25238232Y-19905116D01*
X25239133Y-19862800D01*
X25253433Y-19840595D01*
X25276505Y-19849371D01*
G36*
X22043916Y-21592355D02*
G01*
X22053132Y-21620920D01*
X22054560Y-21669042D01*
X22048535Y-21720384D01*
X22035395Y-21758610D01*
X22002590Y-21778253D01*
X21929544Y-21797098D01*
X21818761Y-21814243D01*
X21793770Y-21817334D01*
X21646946Y-21833630D01*
X21533733Y-21841600D01*
X21447171Y-21840828D01*
X21380300Y-21830898D01*
X21326159Y-21811393D01*
X21277789Y-21781898D01*
X21248134Y-21759773D01*
X21195052Y-21714700D01*
X21172094Y-21685227D01*
X21182211Y-21674667D01*
X21183085Y-21674641D01*
X21212985Y-21672129D01*
X21277502Y-21665974D01*
X21369877Y-21656846D01*
X21483351Y-21645410D01*
X21611167Y-21632333D01*
X21625684Y-21630839D01*
X21752141Y-21617914D01*
X21863421Y-21606701D01*
X21952791Y-21597867D01*
X22013519Y-21592078D01*
X22038873Y-21590000D01*
X22043916Y-21592355D01*
G37*
X22043916Y-21592355D02*
X22053132Y-21620920D01*
X22054560Y-21669042D01*
X22048535Y-21720384D01*
X22035395Y-21758610D01*
X22002590Y-21778253D01*
X21929544Y-21797098D01*
X21818761Y-21814243D01*
X21793770Y-21817334D01*
X21646946Y-21833630D01*
X21533733Y-21841600D01*
X21447171Y-21840828D01*
X21380300Y-21830898D01*
X21326159Y-21811393D01*
X21277789Y-21781898D01*
X21248134Y-21759773D01*
X21195052Y-21714700D01*
X21172094Y-21685227D01*
X21182211Y-21674667D01*
X21183085Y-21674641D01*
X21212985Y-21672129D01*
X21277502Y-21665974D01*
X21369877Y-21656846D01*
X21483351Y-21645410D01*
X21611167Y-21632333D01*
X21625684Y-21630839D01*
X21752141Y-21617914D01*
X21863421Y-21606701D01*
X21952791Y-21597867D01*
X22013519Y-21592078D01*
X22038873Y-21590000D01*
X22043916Y-21592355D01*
G36*
X26764627Y-23066345D02*
G01*
X26772834Y-23106156D01*
X26775833Y-23176251D01*
X26775590Y-23196735D01*
X26769698Y-23264768D01*
X26757480Y-23300209D01*
X26741003Y-23299811D01*
X26722333Y-23260326D01*
X26716403Y-23210176D01*
X26721795Y-23147842D01*
X26735812Y-23092020D01*
X26755487Y-23060576D01*
X26764627Y-23066345D01*
G37*
X26764627Y-23066345D02*
X26772834Y-23106156D01*
X26775833Y-23176251D01*
X26775590Y-23196735D01*
X26769698Y-23264768D01*
X26757480Y-23300209D01*
X26741003Y-23299811D01*
X26722333Y-23260326D01*
X26716403Y-23210176D01*
X26721795Y-23147842D01*
X26735812Y-23092020D01*
X26755487Y-23060576D01*
X26764627Y-23066345D01*
G36*
X18737792Y-28052982D02*
G01*
X18741382Y-28060331D01*
X18711333Y-28063658D01*
X18682216Y-28060707D01*
X18684875Y-28052982D01*
X18694456Y-28050186D01*
X18737792Y-28052982D01*
G37*
X18737792Y-28052982D02*
X18741382Y-28060331D01*
X18711333Y-28063658D01*
X18682216Y-28060707D01*
X18684875Y-28052982D01*
X18694456Y-28050186D01*
X18737792Y-28052982D01*
G36*
X26421292Y-21859012D02*
G01*
X26425347Y-21879784D01*
X26429181Y-21937573D01*
X26432438Y-22026681D01*
X26434960Y-22141472D01*
X26436589Y-22276313D01*
X26437167Y-22425568D01*
X26437077Y-22509067D01*
X26436145Y-22669733D01*
X26434060Y-22793475D01*
X26430648Y-22884039D01*
X26425735Y-22945175D01*
X26419147Y-22980629D01*
X26410708Y-22994148D01*
X26397642Y-22998462D01*
X26377049Y-23002177D01*
X26346186Y-23004483D01*
X26300479Y-23005326D01*
X26235352Y-23004654D01*
X26146230Y-23002413D01*
X26028537Y-22998549D01*
X25877700Y-22993010D01*
X25689141Y-22985742D01*
X25541732Y-22979714D01*
X25393413Y-22972698D01*
X25279915Y-22965868D01*
X25197078Y-22958859D01*
X25140743Y-22951305D01*
X25106753Y-22942838D01*
X25090947Y-22933094D01*
X25084100Y-22911928D01*
X25075252Y-22851236D01*
X25066774Y-22757895D01*
X25059139Y-22637347D01*
X25052821Y-22495033D01*
X25052145Y-22476280D01*
X25047605Y-22332967D01*
X25045777Y-22224621D01*
X25046897Y-22144691D01*
X25051201Y-22086625D01*
X25058924Y-22043870D01*
X25070304Y-22009874D01*
X25102610Y-21932555D01*
X25277764Y-21920034D01*
X25366534Y-21913823D01*
X25522886Y-21903435D01*
X25682811Y-21893409D01*
X25840582Y-21884050D01*
X25990473Y-21875663D01*
X26126757Y-21868554D01*
X26243708Y-21863029D01*
X26335598Y-21859393D01*
X26396702Y-21857952D01*
X26421292Y-21859012D01*
G37*
X26421292Y-21859012D02*
X26425347Y-21879784D01*
X26429181Y-21937573D01*
X26432438Y-22026681D01*
X26434960Y-22141472D01*
X26436589Y-22276313D01*
X26437167Y-22425568D01*
X26437077Y-22509067D01*
X26436145Y-22669733D01*
X26434060Y-22793475D01*
X26430648Y-22884039D01*
X26425735Y-22945175D01*
X26419147Y-22980629D01*
X26410708Y-22994148D01*
X26397642Y-22998462D01*
X26377049Y-23002177D01*
X26346186Y-23004483D01*
X26300479Y-23005326D01*
X26235352Y-23004654D01*
X26146230Y-23002413D01*
X26028537Y-22998549D01*
X25877700Y-22993010D01*
X25689141Y-22985742D01*
X25541732Y-22979714D01*
X25393413Y-22972698D01*
X25279915Y-22965868D01*
X25197078Y-22958859D01*
X25140743Y-22951305D01*
X25106753Y-22942838D01*
X25090947Y-22933094D01*
X25084100Y-22911928D01*
X25075252Y-22851236D01*
X25066774Y-22757895D01*
X25059139Y-22637347D01*
X25052821Y-22495033D01*
X25052145Y-22476280D01*
X25047605Y-22332967D01*
X25045777Y-22224621D01*
X25046897Y-22144691D01*
X25051201Y-22086625D01*
X25058924Y-22043870D01*
X25070304Y-22009874D01*
X25102610Y-21932555D01*
X25277764Y-21920034D01*
X25366534Y-21913823D01*
X25522886Y-21903435D01*
X25682811Y-21893409D01*
X25840582Y-21884050D01*
X25990473Y-21875663D01*
X26126757Y-21868554D01*
X26243708Y-21863029D01*
X26335598Y-21859393D01*
X26396702Y-21857952D01*
X26421292Y-21859012D01*
G36*
X26922882Y-20151101D02*
G01*
X26966411Y-20203728D01*
X26977044Y-20225458D01*
X26981361Y-20261569D01*
X26955936Y-20298628D01*
X26942288Y-20311713D01*
X26888263Y-20337574D01*
X26834157Y-20334636D01*
X26792503Y-20305960D01*
X26775833Y-20254611D01*
X26785723Y-20218499D01*
X26814189Y-20171489D01*
X26824468Y-20160201D01*
X26873109Y-20136071D01*
X26922882Y-20151101D01*
G37*
X26922882Y-20151101D02*
X26966411Y-20203728D01*
X26977044Y-20225458D01*
X26981361Y-20261569D01*
X26955936Y-20298628D01*
X26942288Y-20311713D01*
X26888263Y-20337574D01*
X26834157Y-20334636D01*
X26792503Y-20305960D01*
X26775833Y-20254611D01*
X26785723Y-20218499D01*
X26814189Y-20171489D01*
X26824468Y-20160201D01*
X26873109Y-20136071D01*
X26922882Y-20151101D01*
G36*
X26612862Y-21114645D02*
G01*
X26643972Y-21121740D01*
X26660620Y-21136376D01*
X26671613Y-21160326D01*
X26687796Y-21222082D01*
X26687216Y-21288104D01*
X26664708Y-21331008D01*
X26651585Y-21336200D01*
X26598202Y-21346083D01*
X26509885Y-21356851D01*
X26391297Y-21368143D01*
X26247105Y-21379603D01*
X26081972Y-21390870D01*
X25900565Y-21401587D01*
X25707547Y-21411395D01*
X25507583Y-21419936D01*
X25455589Y-21421944D01*
X25276176Y-21428836D01*
X25133626Y-21434001D01*
X25023598Y-21437281D01*
X24941754Y-21438518D01*
X24883754Y-21437554D01*
X24845257Y-21434232D01*
X24821923Y-21428394D01*
X24809414Y-21419882D01*
X24803389Y-21408540D01*
X24799508Y-21394208D01*
X24799023Y-21392346D01*
X24790247Y-21336615D01*
X24786456Y-21270332D01*
X24786167Y-21194082D01*
X24981958Y-21180757D01*
X24982015Y-21180753D01*
X25037146Y-21177236D01*
X25103559Y-21173477D01*
X25184702Y-21169325D01*
X25284021Y-21164630D01*
X25404963Y-21159244D01*
X25550975Y-21153014D01*
X25725504Y-21145792D01*
X25931995Y-21137428D01*
X26173897Y-21127772D01*
X26454655Y-21116673D01*
X26472030Y-21115993D01*
X26558483Y-21113320D01*
X26612862Y-21114645D01*
G37*
X26612862Y-21114645D02*
X26643972Y-21121740D01*
X26660620Y-21136376D01*
X26671613Y-21160326D01*
X26687796Y-21222082D01*
X26687216Y-21288104D01*
X26664708Y-21331008D01*
X26651585Y-21336200D01*
X26598202Y-21346083D01*
X26509885Y-21356851D01*
X26391297Y-21368143D01*
X26247105Y-21379603D01*
X26081972Y-21390870D01*
X25900565Y-21401587D01*
X25707547Y-21411395D01*
X25507583Y-21419936D01*
X25455589Y-21421944D01*
X25276176Y-21428836D01*
X25133626Y-21434001D01*
X25023598Y-21437281D01*
X24941754Y-21438518D01*
X24883754Y-21437554D01*
X24845257Y-21434232D01*
X24821923Y-21428394D01*
X24809414Y-21419882D01*
X24803389Y-21408540D01*
X24799508Y-21394208D01*
X24799023Y-21392346D01*
X24790247Y-21336615D01*
X24786456Y-21270332D01*
X24786167Y-21194082D01*
X24981958Y-21180757D01*
X24982015Y-21180753D01*
X25037146Y-21177236D01*
X25103559Y-21173477D01*
X25184702Y-21169325D01*
X25284021Y-21164630D01*
X25404963Y-21159244D01*
X25550975Y-21153014D01*
X25725504Y-21145792D01*
X25931995Y-21137428D01*
X26173897Y-21127772D01*
X26454655Y-21116673D01*
X26472030Y-21115993D01*
X26558483Y-21113320D01*
X26612862Y-21114645D01*
G36*
X15242805Y-21750801D02*
G01*
X15223798Y-21791185D01*
X15175147Y-21825380D01*
X15156244Y-21828960D01*
X15095293Y-21834968D01*
X15010935Y-21839538D01*
X14915445Y-21841890D01*
X14820428Y-21841662D01*
X14755488Y-21838000D01*
X14722415Y-21830177D01*
X14715871Y-21817542D01*
X14726678Y-21806447D01*
X14772596Y-21785056D01*
X14845601Y-21761703D01*
X14936509Y-21738862D01*
X15036133Y-21719005D01*
X15135289Y-21704607D01*
X15258899Y-21690622D01*
X15242805Y-21750801D01*
G37*
X15242805Y-21750801D02*
X15223798Y-21791185D01*
X15175147Y-21825380D01*
X15156244Y-21828960D01*
X15095293Y-21834968D01*
X15010935Y-21839538D01*
X14915445Y-21841890D01*
X14820428Y-21841662D01*
X14755488Y-21838000D01*
X14722415Y-21830177D01*
X14715871Y-21817542D01*
X14726678Y-21806447D01*
X14772596Y-21785056D01*
X14845601Y-21761703D01*
X14936509Y-21738862D01*
X15036133Y-21719005D01*
X15135289Y-21704607D01*
X15258899Y-21690622D01*
X15242805Y-21750801D01*
G36*
X20253025Y-21796787D02*
G01*
X20282136Y-21841117D01*
X20294945Y-21880451D01*
X20274799Y-21902830D01*
X20219458Y-21916217D01*
X20164942Y-21923690D01*
X20089094Y-21932177D01*
X19990806Y-21941688D01*
X19868098Y-21952368D01*
X19718987Y-21964365D01*
X19541490Y-21977824D01*
X19333625Y-21992894D01*
X19093411Y-22009720D01*
X18818865Y-22028449D01*
X18508006Y-22049229D01*
X18158850Y-22072204D01*
X17769417Y-22097523D01*
X17706725Y-22101583D01*
X17542271Y-22112271D01*
X17389545Y-22122251D01*
X17254652Y-22131120D01*
X17143694Y-22138475D01*
X17062776Y-22143916D01*
X17018000Y-22147038D01*
X16998049Y-22148132D01*
X16930831Y-22150290D01*
X16832515Y-22152371D01*
X16710538Y-22154252D01*
X16572332Y-22155808D01*
X16425333Y-22156915D01*
X16359079Y-22157252D01*
X16213220Y-22157501D01*
X16101659Y-22156550D01*
X16018589Y-22154031D01*
X15958208Y-22149580D01*
X15914710Y-22142830D01*
X15882290Y-22133415D01*
X15855145Y-22120969D01*
X15853583Y-22120136D01*
X15810571Y-22094834D01*
X15801882Y-22080187D01*
X15823395Y-22069517D01*
X15848779Y-22063955D01*
X15919369Y-22053734D01*
X16025228Y-22041599D01*
X16162162Y-22027925D01*
X16325977Y-22013085D01*
X16512479Y-21997456D01*
X16717474Y-21981411D01*
X16936768Y-21965325D01*
X17166167Y-21949573D01*
X17347303Y-21937382D01*
X17541732Y-21923974D01*
X17734761Y-21910375D01*
X17916179Y-21897311D01*
X18075773Y-21885509D01*
X18203333Y-21875698D01*
X18320054Y-21866669D01*
X18478243Y-21854841D01*
X18658724Y-21841662D01*
X18851096Y-21827884D01*
X19044961Y-21814259D01*
X19229917Y-21801537D01*
X19260037Y-21799490D01*
X19429139Y-21787947D01*
X19591911Y-21776751D01*
X19741171Y-21766403D01*
X19869738Y-21757401D01*
X19970431Y-21750247D01*
X20036067Y-21745439D01*
X20207217Y-21732455D01*
X20253025Y-21796787D01*
G37*
X20253025Y-21796787D02*
X20282136Y-21841117D01*
X20294945Y-21880451D01*
X20274799Y-21902830D01*
X20219458Y-21916217D01*
X20164942Y-21923690D01*
X20089094Y-21932177D01*
X19990806Y-21941688D01*
X19868098Y-21952368D01*
X19718987Y-21964365D01*
X19541490Y-21977824D01*
X19333625Y-21992894D01*
X19093411Y-22009720D01*
X18818865Y-22028449D01*
X18508006Y-22049229D01*
X18158850Y-22072204D01*
X17769417Y-22097523D01*
X17706725Y-22101583D01*
X17542271Y-22112271D01*
X17389545Y-22122251D01*
X17254652Y-22131120D01*
X17143694Y-22138475D01*
X17062776Y-22143916D01*
X17018000Y-22147038D01*
X16998049Y-22148132D01*
X16930831Y-22150290D01*
X16832515Y-22152371D01*
X16710538Y-22154252D01*
X16572332Y-22155808D01*
X16425333Y-22156915D01*
X16359079Y-22157252D01*
X16213220Y-22157501D01*
X16101659Y-22156550D01*
X16018589Y-22154031D01*
X15958208Y-22149580D01*
X15914710Y-22142830D01*
X15882290Y-22133415D01*
X15855145Y-22120969D01*
X15853583Y-22120136D01*
X15810571Y-22094834D01*
X15801882Y-22080187D01*
X15823395Y-22069517D01*
X15848779Y-22063955D01*
X15919369Y-22053734D01*
X16025228Y-22041599D01*
X16162162Y-22027925D01*
X16325977Y-22013085D01*
X16512479Y-21997456D01*
X16717474Y-21981411D01*
X16936768Y-21965325D01*
X17166167Y-21949573D01*
X17347303Y-21937382D01*
X17541732Y-21923974D01*
X17734761Y-21910375D01*
X17916179Y-21897311D01*
X18075773Y-21885509D01*
X18203333Y-21875698D01*
X18320054Y-21866669D01*
X18478243Y-21854841D01*
X18658724Y-21841662D01*
X18851096Y-21827884D01*
X19044961Y-21814259D01*
X19229917Y-21801537D01*
X19260037Y-21799490D01*
X19429139Y-21787947D01*
X19591911Y-21776751D01*
X19741171Y-21766403D01*
X19869738Y-21757401D01*
X19970431Y-21750247D01*
X20036067Y-21745439D01*
X20207217Y-21732455D01*
X20253025Y-21796787D01*
G36*
X20647055Y-21300911D02*
G01*
X20670506Y-21317601D01*
X20680723Y-21328254D01*
X20691855Y-21352837D01*
X20669203Y-21378372D01*
X20665370Y-21381299D01*
X20618434Y-21404179D01*
X20557016Y-21421745D01*
X20545092Y-21423772D01*
X20478452Y-21430924D01*
X20389539Y-21436488D01*
X20294206Y-21439399D01*
X20276969Y-21439601D01*
X20193415Y-21439180D01*
X20144180Y-21435087D01*
X20122427Y-21426217D01*
X20121315Y-21411465D01*
X20121366Y-21411336D01*
X20138998Y-21393534D01*
X20180655Y-21375683D01*
X20250842Y-21356554D01*
X20354062Y-21334919D01*
X20494819Y-21309548D01*
X20559107Y-21299386D01*
X20613687Y-21295012D01*
X20647055Y-21300911D01*
G37*
X20647055Y-21300911D02*
X20670506Y-21317601D01*
X20680723Y-21328254D01*
X20691855Y-21352837D01*
X20669203Y-21378372D01*
X20665370Y-21381299D01*
X20618434Y-21404179D01*
X20557016Y-21421745D01*
X20545092Y-21423772D01*
X20478452Y-21430924D01*
X20389539Y-21436488D01*
X20294206Y-21439399D01*
X20276969Y-21439601D01*
X20193415Y-21439180D01*
X20144180Y-21435087D01*
X20122427Y-21426217D01*
X20121315Y-21411465D01*
X20121366Y-21411336D01*
X20138998Y-21393534D01*
X20180655Y-21375683D01*
X20250842Y-21356554D01*
X20354062Y-21334919D01*
X20494819Y-21309548D01*
X20559107Y-21299386D01*
X20613687Y-21295012D01*
X20647055Y-21300911D01*
G36*
X14708696Y-22142538D02*
G01*
X14748258Y-22147248D01*
X14771991Y-22155204D01*
X14785824Y-22166947D01*
X14795688Y-22183018D01*
X14807503Y-22217325D01*
X14802498Y-22247635D01*
X14788027Y-22253153D01*
X14736676Y-22264020D01*
X14655853Y-22277371D01*
X14552963Y-22292011D01*
X14435412Y-22306749D01*
X14278078Y-22323642D01*
X14128780Y-22336614D01*
X13994546Y-22345274D01*
X13880763Y-22349428D01*
X13792820Y-22348879D01*
X13736103Y-22343432D01*
X13716000Y-22332891D01*
X13716018Y-22332549D01*
X13733352Y-22311479D01*
X13776972Y-22275554D01*
X13837708Y-22232350D01*
X13959417Y-22150917D01*
X14365103Y-22143704D01*
X14435732Y-22142468D01*
X14558363Y-22140689D01*
X14647374Y-22140532D01*
X14708696Y-22142538D01*
G37*
X14708696Y-22142538D02*
X14748258Y-22147248D01*
X14771991Y-22155204D01*
X14785824Y-22166947D01*
X14795688Y-22183018D01*
X14807503Y-22217325D01*
X14802498Y-22247635D01*
X14788027Y-22253153D01*
X14736676Y-22264020D01*
X14655853Y-22277371D01*
X14552963Y-22292011D01*
X14435412Y-22306749D01*
X14278078Y-22323642D01*
X14128780Y-22336614D01*
X13994546Y-22345274D01*
X13880763Y-22349428D01*
X13792820Y-22348879D01*
X13736103Y-22343432D01*
X13716000Y-22332891D01*
X13716018Y-22332549D01*
X13733352Y-22311479D01*
X13776972Y-22275554D01*
X13837708Y-22232350D01*
X13959417Y-22150917D01*
X14365103Y-22143704D01*
X14435732Y-22142468D01*
X14558363Y-22140689D01*
X14647374Y-22140532D01*
X14708696Y-22142538D01*
G36*
X14007957Y-22821485D02*
G01*
X14024049Y-22860233D01*
X14022297Y-22934643D01*
X14002508Y-23043826D01*
X13964488Y-23186893D01*
X13944805Y-23249944D01*
X13927254Y-23291182D01*
X13912651Y-23298422D01*
X13898811Y-23269678D01*
X13883548Y-23202968D01*
X13864674Y-23096307D01*
X13838562Y-22941032D01*
X13897658Y-22879349D01*
X13923014Y-22854535D01*
X13974214Y-22819289D01*
X14007957Y-22821485D01*
G37*
X14007957Y-22821485D02*
X14024049Y-22860233D01*
X14022297Y-22934643D01*
X14002508Y-23043826D01*
X13964488Y-23186893D01*
X13944805Y-23249944D01*
X13927254Y-23291182D01*
X13912651Y-23298422D01*
X13898811Y-23269678D01*
X13883548Y-23202968D01*
X13864674Y-23096307D01*
X13838562Y-22941032D01*
X13897658Y-22879349D01*
X13923014Y-22854535D01*
X13974214Y-22819289D01*
X14007957Y-22821485D01*
G36*
X26650616Y-19898840D02*
G01*
X26704306Y-19906454D01*
X26741222Y-19920236D01*
X26766420Y-19940292D01*
X26780670Y-19957699D01*
X26789888Y-19981556D01*
X26775776Y-19999668D01*
X26733608Y-20014203D01*
X26658659Y-20027324D01*
X26546202Y-20041197D01*
X26518461Y-20044264D01*
X26408046Y-20055733D01*
X26271073Y-20069138D01*
X26114410Y-20083878D01*
X25944927Y-20099355D01*
X25769495Y-20114971D01*
X25594983Y-20130125D01*
X25428261Y-20144220D01*
X25276199Y-20156657D01*
X25145666Y-20166836D01*
X25043532Y-20174159D01*
X24976667Y-20178026D01*
X24976563Y-20178031D01*
X24885754Y-20181911D01*
X24800247Y-20185778D01*
X24738542Y-20188794D01*
X24687093Y-20188536D01*
X24664133Y-20175527D01*
X24659167Y-20142651D01*
X24659175Y-20141013D01*
X24662941Y-20114182D01*
X24676354Y-20091898D01*
X24703491Y-20073311D01*
X24748431Y-20057571D01*
X24815253Y-20043830D01*
X24908035Y-20031236D01*
X25030855Y-20018940D01*
X25187791Y-20006093D01*
X25382923Y-19991844D01*
X25393700Y-19991081D01*
X25557364Y-19979028D01*
X25729541Y-19965615D01*
X25897540Y-19951878D01*
X26048676Y-19938853D01*
X26170257Y-19927575D01*
X26338369Y-19911916D01*
X26472701Y-19901678D01*
X26575099Y-19897283D01*
X26650616Y-19898840D01*
G37*
X26650616Y-19898840D02*
X26704306Y-19906454D01*
X26741222Y-19920236D01*
X26766420Y-19940292D01*
X26780670Y-19957699D01*
X26789888Y-19981556D01*
X26775776Y-19999668D01*
X26733608Y-20014203D01*
X26658659Y-20027324D01*
X26546202Y-20041197D01*
X26518461Y-20044264D01*
X26408046Y-20055733D01*
X26271073Y-20069138D01*
X26114410Y-20083878D01*
X25944927Y-20099355D01*
X25769495Y-20114971D01*
X25594983Y-20130125D01*
X25428261Y-20144220D01*
X25276199Y-20156657D01*
X25145666Y-20166836D01*
X25043532Y-20174159D01*
X24976667Y-20178026D01*
X24976563Y-20178031D01*
X24885754Y-20181911D01*
X24800247Y-20185778D01*
X24738542Y-20188794D01*
X24687093Y-20188536D01*
X24664133Y-20175527D01*
X24659167Y-20142651D01*
X24659175Y-20141013D01*
X24662941Y-20114182D01*
X24676354Y-20091898D01*
X24703491Y-20073311D01*
X24748431Y-20057571D01*
X24815253Y-20043830D01*
X24908035Y-20031236D01*
X25030855Y-20018940D01*
X25187791Y-20006093D01*
X25382923Y-19991844D01*
X25393700Y-19991081D01*
X25557364Y-19979028D01*
X25729541Y-19965615D01*
X25897540Y-19951878D01*
X26048676Y-19938853D01*
X26170257Y-19927575D01*
X26338369Y-19911916D01*
X26472701Y-19901678D01*
X26575099Y-19897283D01*
X26650616Y-19898840D01*
G36*
X27310543Y-23161886D02*
G01*
X27313383Y-23174114D01*
X27321423Y-23232855D01*
X27318412Y-23273011D01*
X27310438Y-23287626D01*
X27285747Y-23304500D01*
X27259128Y-23293025D01*
X27250265Y-23249710D01*
X27265097Y-23172697D01*
X27290589Y-23082250D01*
X27310543Y-23161886D01*
G37*
X27310543Y-23161886D02*
X27313383Y-23174114D01*
X27321423Y-23232855D01*
X27318412Y-23273011D01*
X27310438Y-23287626D01*
X27285747Y-23304500D01*
X27259128Y-23293025D01*
X27250265Y-23249710D01*
X27265097Y-23172697D01*
X27290589Y-23082250D01*
X27310543Y-23161886D01*
G36*
X26001346Y-23056260D02*
G01*
X26076618Y-23077539D01*
X26098703Y-23093446D01*
X26136947Y-23147338D01*
X26158262Y-23213201D01*
X26154802Y-23271561D01*
X26141435Y-23287236D01*
X26108904Y-23297638D01*
X26049803Y-23302855D01*
X25956289Y-23304176D01*
X25922099Y-23303797D01*
X25838646Y-23300091D01*
X25773975Y-23293308D01*
X25739857Y-23284517D01*
X25726779Y-23269713D01*
X25720046Y-23224004D01*
X25733247Y-23167224D01*
X25762061Y-23113709D01*
X25802167Y-23077796D01*
X25826620Y-23067866D01*
X25910459Y-23053043D01*
X26001346Y-23056260D01*
G37*
X26001346Y-23056260D02*
X26076618Y-23077539D01*
X26098703Y-23093446D01*
X26136947Y-23147338D01*
X26158262Y-23213201D01*
X26154802Y-23271561D01*
X26141435Y-23287236D01*
X26108904Y-23297638D01*
X26049803Y-23302855D01*
X25956289Y-23304176D01*
X25922099Y-23303797D01*
X25838646Y-23300091D01*
X25773975Y-23293308D01*
X25739857Y-23284517D01*
X25726779Y-23269713D01*
X25720046Y-23224004D01*
X25733247Y-23167224D01*
X25762061Y-23113709D01*
X25802167Y-23077796D01*
X25826620Y-23067866D01*
X25910459Y-23053043D01*
X26001346Y-23056260D01*
G36*
X27156672Y-20607223D02*
G01*
X27160386Y-20607878D01*
X27223563Y-20621844D01*
X27254479Y-20637611D01*
X27262667Y-20659916D01*
X27245736Y-20672093D01*
X27201263Y-20678339D01*
X27144073Y-20678056D01*
X27089030Y-20671353D01*
X27051000Y-20658342D01*
X27046978Y-20655521D01*
X27033722Y-20632097D01*
X27053277Y-20613486D01*
X27097106Y-20603818D01*
X27156672Y-20607223D01*
G37*
X27156672Y-20607223D02*
X27160386Y-20607878D01*
X27223563Y-20621844D01*
X27254479Y-20637611D01*
X27262667Y-20659916D01*
X27245736Y-20672093D01*
X27201263Y-20678339D01*
X27144073Y-20678056D01*
X27089030Y-20671353D01*
X27051000Y-20658342D01*
X27046978Y-20655521D01*
X27033722Y-20632097D01*
X27053277Y-20613486D01*
X27097106Y-20603818D01*
X27156672Y-20607223D01*
G36*
X13940978Y-22563402D02*
G01*
X13958601Y-22639686D01*
X13959128Y-22643237D01*
X13964702Y-22707249D01*
X13954879Y-22749460D01*
X13925603Y-22788113D01*
X13923044Y-22790811D01*
X13885675Y-22824818D01*
X13860477Y-22838833D01*
X13849732Y-22823386D01*
X13843708Y-22778007D01*
X13843379Y-22715433D01*
X13848242Y-22648600D01*
X13857796Y-22590442D01*
X13871539Y-22553895D01*
X13887785Y-22535635D01*
X13917317Y-22528663D01*
X13940978Y-22563402D01*
G37*
X13940978Y-22563402D02*
X13958601Y-22639686D01*
X13959128Y-22643237D01*
X13964702Y-22707249D01*
X13954879Y-22749460D01*
X13925603Y-22788113D01*
X13923044Y-22790811D01*
X13885675Y-22824818D01*
X13860477Y-22838833D01*
X13849732Y-22823386D01*
X13843708Y-22778007D01*
X13843379Y-22715433D01*
X13848242Y-22648600D01*
X13857796Y-22590442D01*
X13871539Y-22553895D01*
X13887785Y-22535635D01*
X13917317Y-22528663D01*
X13940978Y-22563402D01*
G36*
X26553583Y-23066393D02*
G01*
X26609197Y-23075874D01*
X26645025Y-23089840D01*
X26660221Y-23116570D01*
X26666251Y-23166222D01*
X26667404Y-23184854D01*
X26661284Y-23242952D01*
X26634690Y-23277971D01*
X26606300Y-23290400D01*
X26535597Y-23299950D01*
X26426772Y-23299982D01*
X26257250Y-23293917D01*
X26244602Y-23075923D01*
X26346176Y-23063080D01*
X26372240Y-23060570D01*
X26465127Y-23059135D01*
X26553583Y-23066393D01*
G37*
X26553583Y-23066393D02*
X26609197Y-23075874D01*
X26645025Y-23089840D01*
X26660221Y-23116570D01*
X26666251Y-23166222D01*
X26667404Y-23184854D01*
X26661284Y-23242952D01*
X26634690Y-23277971D01*
X26606300Y-23290400D01*
X26535597Y-23299950D01*
X26426772Y-23299982D01*
X26257250Y-23293917D01*
X26244602Y-23075923D01*
X26346176Y-23063080D01*
X26372240Y-23060570D01*
X26465127Y-23059135D01*
X26553583Y-23066393D01*
G36*
X23172138Y-21890660D02*
G01*
X23198280Y-21907320D01*
X23184556Y-21935722D01*
X23160623Y-21947946D01*
X23113012Y-21944667D01*
X23071667Y-21918083D01*
X23060104Y-21898901D01*
X23073542Y-21888718D01*
X23121992Y-21886333D01*
X23172138Y-21890660D01*
G37*
X23172138Y-21890660D02*
X23198280Y-21907320D01*
X23184556Y-21935722D01*
X23160623Y-21947946D01*
X23113012Y-21944667D01*
X23071667Y-21918083D01*
X23060104Y-21898901D01*
X23073542Y-21888718D01*
X23121992Y-21886333D01*
X23172138Y-21890660D01*
G36*
X27163762Y-20736666D02*
G01*
X27228427Y-20755933D01*
X27278022Y-20782428D01*
X27301407Y-20814384D01*
X27303154Y-20829376D01*
X27294597Y-20843650D01*
X27263366Y-20845996D01*
X27199956Y-20838692D01*
X27102777Y-20823358D01*
X27029548Y-20805805D01*
X26989248Y-20786239D01*
X26976917Y-20762977D01*
X26990756Y-20739879D01*
X27033786Y-20726874D01*
X27095168Y-20726392D01*
X27163762Y-20736666D01*
G37*
X27163762Y-20736666D02*
X27228427Y-20755933D01*
X27278022Y-20782428D01*
X27301407Y-20814384D01*
X27303154Y-20829376D01*
X27294597Y-20843650D01*
X27263366Y-20845996D01*
X27199956Y-20838692D01*
X27102777Y-20823358D01*
X27029548Y-20805805D01*
X26989248Y-20786239D01*
X26976917Y-20762977D01*
X26990756Y-20739879D01*
X27033786Y-20726874D01*
X27095168Y-20726392D01*
X27163762Y-20736666D01*
G36*
X26210679Y-19632083D02*
G01*
X26214682Y-19646392D01*
X26217448Y-19654704D01*
X26210581Y-19678397D01*
X26168955Y-19690845D01*
X26131697Y-19694222D01*
X26058993Y-19697903D01*
X25964840Y-19700974D01*
X25860375Y-19702995D01*
X25611667Y-19706167D01*
X25611667Y-19632083D01*
X25802167Y-19632083D01*
X25812750Y-19642667D01*
X25823333Y-19632083D01*
X25812750Y-19621500D01*
X25802167Y-19632083D01*
X25611667Y-19632083D01*
X25611667Y-19568583D01*
X25950333Y-19568583D01*
X25960917Y-19579167D01*
X25971500Y-19568583D01*
X25960917Y-19558000D01*
X25950333Y-19568583D01*
X25611667Y-19568583D01*
X25611667Y-19494500D01*
X25696333Y-19494500D01*
X25745711Y-19492047D01*
X25774037Y-19479695D01*
X25779133Y-19459254D01*
X25935047Y-19459254D01*
X25935367Y-19460177D01*
X25962036Y-19486268D01*
X25999969Y-19487674D01*
X26027096Y-19463401D01*
X26032126Y-19444542D01*
X26028627Y-19417571D01*
X26014288Y-19411829D01*
X25978622Y-19418048D01*
X25945652Y-19436777D01*
X25935047Y-19459254D01*
X25779133Y-19459254D01*
X25781000Y-19451763D01*
X25780442Y-19439396D01*
X25767411Y-19418396D01*
X25728083Y-19422308D01*
X25725240Y-19423006D01*
X25686286Y-19425191D01*
X25675167Y-19402971D01*
X25676223Y-19393200D01*
X25691694Y-19371286D01*
X25729504Y-19356258D01*
X25794614Y-19347285D01*
X25891986Y-19343539D01*
X26026579Y-19344189D01*
X26155742Y-19346333D01*
X26172370Y-19444542D01*
X26178140Y-19478625D01*
X26189757Y-19542054D01*
X26195447Y-19568583D01*
X26203771Y-19607398D01*
X26210679Y-19632083D01*
G37*
X26210679Y-19632083D02*
X26214682Y-19646392D01*
X26217448Y-19654704D01*
X26210581Y-19678397D01*
X26168955Y-19690845D01*
X26131697Y-19694222D01*
X26058993Y-19697903D01*
X25964840Y-19700974D01*
X25860375Y-19702995D01*
X25611667Y-19706167D01*
X25611667Y-19632083D01*
X25802167Y-19632083D01*
X25812750Y-19642667D01*
X25823333Y-19632083D01*
X25812750Y-19621500D01*
X25802167Y-19632083D01*
X25611667Y-19632083D01*
X25611667Y-19568583D01*
X25950333Y-19568583D01*
X25960917Y-19579167D01*
X25971500Y-19568583D01*
X25960917Y-19558000D01*
X25950333Y-19568583D01*
X25611667Y-19568583D01*
X25611667Y-19494500D01*
X25696333Y-19494500D01*
X25745711Y-19492047D01*
X25774037Y-19479695D01*
X25779133Y-19459254D01*
X25935047Y-19459254D01*
X25935367Y-19460177D01*
X25962036Y-19486268D01*
X25999969Y-19487674D01*
X26027096Y-19463401D01*
X26032126Y-19444542D01*
X26028627Y-19417571D01*
X26014288Y-19411829D01*
X25978622Y-19418048D01*
X25945652Y-19436777D01*
X25935047Y-19459254D01*
X25779133Y-19459254D01*
X25781000Y-19451763D01*
X25780442Y-19439396D01*
X25767411Y-19418396D01*
X25728083Y-19422308D01*
X25725240Y-19423006D01*
X25686286Y-19425191D01*
X25675167Y-19402971D01*
X25676223Y-19393200D01*
X25691694Y-19371286D01*
X25729504Y-19356258D01*
X25794614Y-19347285D01*
X25891986Y-19343539D01*
X26026579Y-19344189D01*
X26155742Y-19346333D01*
X26172370Y-19444542D01*
X26178140Y-19478625D01*
X26189757Y-19542054D01*
X26195447Y-19568583D01*
X26203771Y-19607398D01*
X26210679Y-19632083D01*
G36*
X26491935Y-19765201D02*
G01*
X26506767Y-19773970D01*
X26515883Y-19788917D01*
X26487941Y-19807482D01*
X26458208Y-19816131D01*
X26387555Y-19828521D01*
X26281230Y-19843140D01*
X26142741Y-19859576D01*
X25975591Y-19877415D01*
X25783287Y-19896246D01*
X25569333Y-19915655D01*
X25517492Y-19920271D01*
X25439580Y-19927566D01*
X25384912Y-19933163D01*
X25362958Y-19936122D01*
X25362723Y-19936235D01*
X25357811Y-19923125D01*
X25359696Y-19918286D01*
X25384812Y-19892457D01*
X25429798Y-19858333D01*
X25431267Y-19857336D01*
X25458842Y-19840616D01*
X25489795Y-19827793D01*
X25530617Y-19817980D01*
X25587795Y-19810292D01*
X25667818Y-19803845D01*
X25777173Y-19797752D01*
X25922350Y-19791129D01*
X25936533Y-19790506D01*
X26068496Y-19784082D01*
X26188269Y-19777185D01*
X26288324Y-19770325D01*
X26361132Y-19764013D01*
X26399164Y-19758761D01*
X26444270Y-19754558D01*
X26491935Y-19765201D01*
G37*
X26491935Y-19765201D02*
X26506767Y-19773970D01*
X26515883Y-19788917D01*
X26487941Y-19807482D01*
X26458208Y-19816131D01*
X26387555Y-19828521D01*
X26281230Y-19843140D01*
X26142741Y-19859576D01*
X25975591Y-19877415D01*
X25783287Y-19896246D01*
X25569333Y-19915655D01*
X25517492Y-19920271D01*
X25439580Y-19927566D01*
X25384912Y-19933163D01*
X25362958Y-19936122D01*
X25362723Y-19936235D01*
X25357811Y-19923125D01*
X25359696Y-19918286D01*
X25384812Y-19892457D01*
X25429798Y-19858333D01*
X25431267Y-19857336D01*
X25458842Y-19840616D01*
X25489795Y-19827793D01*
X25530617Y-19817980D01*
X25587795Y-19810292D01*
X25667818Y-19803845D01*
X25777173Y-19797752D01*
X25922350Y-19791129D01*
X25936533Y-19790506D01*
X26068496Y-19784082D01*
X26188269Y-19777185D01*
X26288324Y-19770325D01*
X26361132Y-19764013D01*
X26399164Y-19758761D01*
X26444270Y-19754558D01*
X26491935Y-19765201D01*
G36*
X24791455Y-23016889D02*
G01*
X24812830Y-23018499D01*
X24916148Y-23025750D01*
X25043802Y-23034109D01*
X25181597Y-23042665D01*
X25315333Y-23050508D01*
X25381181Y-23054253D01*
X25485787Y-23060295D01*
X25570134Y-23065286D01*
X25626887Y-23068789D01*
X25648708Y-23070366D01*
X25652582Y-23075037D01*
X25654008Y-23108306D01*
X25646115Y-23160576D01*
X25630763Y-23216675D01*
X25607526Y-23283333D01*
X25161413Y-23283333D01*
X25174468Y-23188083D01*
X25177036Y-23165637D01*
X25176333Y-23110577D01*
X25164862Y-23093671D01*
X25148391Y-23116144D01*
X25132687Y-23179219D01*
X25128291Y-23202219D01*
X25115757Y-23238447D01*
X25103632Y-23240944D01*
X25091541Y-23228973D01*
X25076663Y-23246847D01*
X25075545Y-23249324D01*
X25052741Y-23265886D01*
X25001435Y-23275121D01*
X24914842Y-23278350D01*
X24871155Y-23278470D01*
X24808134Y-23275852D01*
X24767728Y-23265540D01*
X24736760Y-23242882D01*
X24702050Y-23203224D01*
X24687385Y-23184505D01*
X24645068Y-23120567D01*
X24617504Y-23064493D01*
X24595659Y-23001827D01*
X24791455Y-23016889D01*
G37*
X24791455Y-23016889D02*
X24812830Y-23018499D01*
X24916148Y-23025750D01*
X25043802Y-23034109D01*
X25181597Y-23042665D01*
X25315333Y-23050508D01*
X25381181Y-23054253D01*
X25485787Y-23060295D01*
X25570134Y-23065286D01*
X25626887Y-23068789D01*
X25648708Y-23070366D01*
X25652582Y-23075037D01*
X25654008Y-23108306D01*
X25646115Y-23160576D01*
X25630763Y-23216675D01*
X25607526Y-23283333D01*
X25161413Y-23283333D01*
X25174468Y-23188083D01*
X25177036Y-23165637D01*
X25176333Y-23110577D01*
X25164862Y-23093671D01*
X25148391Y-23116144D01*
X25132687Y-23179219D01*
X25128291Y-23202219D01*
X25115757Y-23238447D01*
X25103632Y-23240944D01*
X25091541Y-23228973D01*
X25076663Y-23246847D01*
X25075545Y-23249324D01*
X25052741Y-23265886D01*
X25001435Y-23275121D01*
X24914842Y-23278350D01*
X24871155Y-23278470D01*
X24808134Y-23275852D01*
X24767728Y-23265540D01*
X24736760Y-23242882D01*
X24702050Y-23203224D01*
X24687385Y-23184505D01*
X24645068Y-23120567D01*
X24617504Y-23064493D01*
X24595659Y-23001827D01*
X24791455Y-23016889D01*
G36*
X16894969Y-28073707D02*
G01*
X16904766Y-28081326D01*
X16882181Y-28086495D01*
X16860712Y-28084999D01*
X16854399Y-28075378D01*
X16861888Y-28071184D01*
X16894969Y-28073707D01*
G37*
X16894969Y-28073707D02*
X16904766Y-28081326D01*
X16882181Y-28086495D01*
X16860712Y-28084999D01*
X16854399Y-28075378D01*
X16861888Y-28071184D01*
X16894969Y-28073707D01*
G36*
X18282728Y-27617452D02*
G01*
X18295294Y-27663172D01*
X18309075Y-27727848D01*
X18310398Y-27734787D01*
X18327532Y-27809909D01*
X18349369Y-27857824D01*
X18385281Y-27892314D01*
X18444641Y-27927156D01*
X18519712Y-27967229D01*
X18684315Y-27855042D01*
X18719428Y-27830905D01*
X18794693Y-27777822D01*
X18856219Y-27732663D01*
X18893275Y-27703223D01*
X18907158Y-27693196D01*
X18960244Y-27671530D01*
X19045674Y-27651849D01*
X19168441Y-27632876D01*
X19282372Y-27618803D01*
X19420178Y-27606901D01*
X19542850Y-27604915D01*
X19664311Y-27613393D01*
X19798489Y-27632881D01*
X19959308Y-27663925D01*
X20090078Y-27690694D01*
X20221886Y-27716441D01*
X20341899Y-27737696D01*
X20455033Y-27754666D01*
X20566204Y-27767559D01*
X20680327Y-27776580D01*
X20802317Y-27781937D01*
X20937090Y-27783836D01*
X21089561Y-27782484D01*
X21264646Y-27778088D01*
X21467260Y-27770854D01*
X21702318Y-27760990D01*
X21974736Y-27748701D01*
X22581721Y-27720851D01*
X22768486Y-27776570D01*
X22816420Y-27790506D01*
X23048885Y-27845874D01*
X23259151Y-27873151D01*
X23454626Y-27872923D01*
X23642720Y-27845776D01*
X23677012Y-27838500D01*
X23751976Y-27825370D01*
X23812990Y-27822402D01*
X23878380Y-27829680D01*
X23966475Y-27847292D01*
X23991695Y-27852963D01*
X24060122Y-27871092D01*
X24104110Y-27887123D01*
X24115089Y-27898123D01*
X24102177Y-27905793D01*
X24056641Y-27925274D01*
X23993938Y-27947770D01*
X23960573Y-27957281D01*
X23905812Y-27967419D01*
X23834738Y-27974573D01*
X23740851Y-27979164D01*
X23617650Y-27981611D01*
X23458636Y-27982333D01*
X23318710Y-27982035D01*
X23204118Y-27980721D01*
X23119166Y-27977850D01*
X23057300Y-27972883D01*
X23011965Y-27965278D01*
X22976605Y-27954497D01*
X22944667Y-27940000D01*
X22914927Y-27926367D01*
X22867720Y-27911943D01*
X22807744Y-27903181D01*
X22725158Y-27898838D01*
X22610124Y-27897667D01*
X22568082Y-27897727D01*
X22472446Y-27898956D01*
X22407958Y-27902737D01*
X22366323Y-27910333D01*
X22339246Y-27923003D01*
X22318432Y-27942009D01*
X22312671Y-27948197D01*
X22287706Y-27968125D01*
X22254723Y-27977706D01*
X22202387Y-27978695D01*
X22119360Y-27972850D01*
X22028096Y-27964524D01*
X21939256Y-27955447D01*
X21873251Y-27947690D01*
X21854244Y-27945262D01*
X21807354Y-27943520D01*
X21784417Y-27957593D01*
X21771599Y-27993750D01*
X21757112Y-28051470D01*
X21562431Y-28037110D01*
X21542356Y-28035566D01*
X21419967Y-28024357D01*
X21286220Y-28009829D01*
X21166667Y-27994718D01*
X21101419Y-27985960D01*
X21025666Y-27978075D01*
X20974283Y-27977714D01*
X20936633Y-27985110D01*
X20902083Y-28000495D01*
X20852862Y-28018125D01*
X20754289Y-28031856D01*
X20627598Y-28033413D01*
X20479810Y-28023543D01*
X20317941Y-28002998D01*
X20149010Y-27972524D01*
X19980037Y-27932873D01*
X19818038Y-27884792D01*
X19761005Y-27866207D01*
X19650102Y-27831980D01*
X19545789Y-27801925D01*
X19464749Y-27780947D01*
X19450194Y-27777590D01*
X19378273Y-27763088D01*
X19325765Y-27760435D01*
X19274100Y-27770605D01*
X19204711Y-27794569D01*
X19151648Y-27815480D01*
X19066051Y-27853416D01*
X18997083Y-27888682D01*
X18936039Y-27915069D01*
X18837910Y-27945274D01*
X18711764Y-27976433D01*
X18564797Y-28006775D01*
X18404205Y-28034530D01*
X18319326Y-28047838D01*
X18245990Y-27925127D01*
X18207053Y-27862723D01*
X18172378Y-27812275D01*
X18151127Y-27787422D01*
X18149681Y-27786460D01*
X18130272Y-27780074D01*
X18098383Y-27781513D01*
X18047101Y-27792182D01*
X17969509Y-27813487D01*
X17858692Y-27846832D01*
X17845645Y-27850731D01*
X17737979Y-27877878D01*
X17615603Y-27902290D01*
X17502539Y-27919093D01*
X17469425Y-27923162D01*
X17374634Y-27937983D01*
X17292324Y-27955109D01*
X17237345Y-27971600D01*
X17204861Y-27980102D01*
X17128674Y-27989887D01*
X17022392Y-27997477D01*
X16893066Y-28002885D01*
X16747747Y-28006125D01*
X16593486Y-28007209D01*
X16437334Y-28006150D01*
X16286343Y-28002960D01*
X16147562Y-27997652D01*
X16028045Y-27990239D01*
X15934840Y-27980733D01*
X15875000Y-27969147D01*
X15758583Y-27933140D01*
X15832539Y-27917021D01*
X15874548Y-27911418D01*
X15951911Y-27904974D01*
X16055531Y-27898409D01*
X16177219Y-27892240D01*
X16308789Y-27886984D01*
X16395812Y-27883554D01*
X16614545Y-27870184D01*
X16804561Y-27850518D01*
X16975667Y-27823623D01*
X17092986Y-27801827D01*
X17292123Y-27765398D01*
X17484532Y-27730870D01*
X17665854Y-27698979D01*
X17831728Y-27670461D01*
X17977793Y-27646051D01*
X18099688Y-27626484D01*
X18193054Y-27612496D01*
X18253529Y-27604822D01*
X18276753Y-27604197D01*
X18282728Y-27617452D01*
G37*
X18282728Y-27617452D02*
X18295294Y-27663172D01*
X18309075Y-27727848D01*
X18310398Y-27734787D01*
X18327532Y-27809909D01*
X18349369Y-27857824D01*
X18385281Y-27892314D01*
X18444641Y-27927156D01*
X18519712Y-27967229D01*
X18684315Y-27855042D01*
X18719428Y-27830905D01*
X18794693Y-27777822D01*
X18856219Y-27732663D01*
X18893275Y-27703223D01*
X18907158Y-27693196D01*
X18960244Y-27671530D01*
X19045674Y-27651849D01*
X19168441Y-27632876D01*
X19282372Y-27618803D01*
X19420178Y-27606901D01*
X19542850Y-27604915D01*
X19664311Y-27613393D01*
X19798489Y-27632881D01*
X19959308Y-27663925D01*
X20090078Y-27690694D01*
X20221886Y-27716441D01*
X20341899Y-27737696D01*
X20455033Y-27754666D01*
X20566204Y-27767559D01*
X20680327Y-27776580D01*
X20802317Y-27781937D01*
X20937090Y-27783836D01*
X21089561Y-27782484D01*
X21264646Y-27778088D01*
X21467260Y-27770854D01*
X21702318Y-27760990D01*
X21974736Y-27748701D01*
X22581721Y-27720851D01*
X22768486Y-27776570D01*
X22816420Y-27790506D01*
X23048885Y-27845874D01*
X23259151Y-27873151D01*
X23454626Y-27872923D01*
X23642720Y-27845776D01*
X23677012Y-27838500D01*
X23751976Y-27825370D01*
X23812990Y-27822402D01*
X23878380Y-27829680D01*
X23966475Y-27847292D01*
X23991695Y-27852963D01*
X24060122Y-27871092D01*
X24104110Y-27887123D01*
X24115089Y-27898123D01*
X24102177Y-27905793D01*
X24056641Y-27925274D01*
X23993938Y-27947770D01*
X23960573Y-27957281D01*
X23905812Y-27967419D01*
X23834738Y-27974573D01*
X23740851Y-27979164D01*
X23617650Y-27981611D01*
X23458636Y-27982333D01*
X23318710Y-27982035D01*
X23204118Y-27980721D01*
X23119166Y-27977850D01*
X23057300Y-27972883D01*
X23011965Y-27965278D01*
X22976605Y-27954497D01*
X22944667Y-27940000D01*
X22914927Y-27926367D01*
X22867720Y-27911943D01*
X22807744Y-27903181D01*
X22725158Y-27898838D01*
X22610124Y-27897667D01*
X22568082Y-27897727D01*
X22472446Y-27898956D01*
X22407958Y-27902737D01*
X22366323Y-27910333D01*
X22339246Y-27923003D01*
X22318432Y-27942009D01*
X22312671Y-27948197D01*
X22287706Y-27968125D01*
X22254723Y-27977706D01*
X22202387Y-27978695D01*
X22119360Y-27972850D01*
X22028096Y-27964524D01*
X21939256Y-27955447D01*
X21873251Y-27947690D01*
X21854244Y-27945262D01*
X21807354Y-27943520D01*
X21784417Y-27957593D01*
X21771599Y-27993750D01*
X21757112Y-28051470D01*
X21562431Y-28037110D01*
X21542356Y-28035566D01*
X21419967Y-28024357D01*
X21286220Y-28009829D01*
X21166667Y-27994718D01*
X21101419Y-27985960D01*
X21025666Y-27978075D01*
X20974283Y-27977714D01*
X20936633Y-27985110D01*
X20902083Y-28000495D01*
X20852862Y-28018125D01*
X20754289Y-28031856D01*
X20627598Y-28033413D01*
X20479810Y-28023543D01*
X20317941Y-28002998D01*
X20149010Y-27972524D01*
X19980037Y-27932873D01*
X19818038Y-27884792D01*
X19761005Y-27866207D01*
X19650102Y-27831980D01*
X19545789Y-27801925D01*
X19464749Y-27780947D01*
X19450194Y-27777590D01*
X19378273Y-27763088D01*
X19325765Y-27760435D01*
X19274100Y-27770605D01*
X19204711Y-27794569D01*
X19151648Y-27815480D01*
X19066051Y-27853416D01*
X18997083Y-27888682D01*
X18936039Y-27915069D01*
X18837910Y-27945274D01*
X18711764Y-27976433D01*
X18564797Y-28006775D01*
X18404205Y-28034530D01*
X18319326Y-28047838D01*
X18245990Y-27925127D01*
X18207053Y-27862723D01*
X18172378Y-27812275D01*
X18151127Y-27787422D01*
X18149681Y-27786460D01*
X18130272Y-27780074D01*
X18098383Y-27781513D01*
X18047101Y-27792182D01*
X17969509Y-27813487D01*
X17858692Y-27846832D01*
X17845645Y-27850731D01*
X17737979Y-27877878D01*
X17615603Y-27902290D01*
X17502539Y-27919093D01*
X17469425Y-27923162D01*
X17374634Y-27937983D01*
X17292324Y-27955109D01*
X17237345Y-27971600D01*
X17204861Y-27980102D01*
X17128674Y-27989887D01*
X17022392Y-27997477D01*
X16893066Y-28002885D01*
X16747747Y-28006125D01*
X16593486Y-28007209D01*
X16437334Y-28006150D01*
X16286343Y-28002960D01*
X16147562Y-27997652D01*
X16028045Y-27990239D01*
X15934840Y-27980733D01*
X15875000Y-27969147D01*
X15758583Y-27933140D01*
X15832539Y-27917021D01*
X15874548Y-27911418D01*
X15951911Y-27904974D01*
X16055531Y-27898409D01*
X16177219Y-27892240D01*
X16308789Y-27886984D01*
X16395812Y-27883554D01*
X16614545Y-27870184D01*
X16804561Y-27850518D01*
X16975667Y-27823623D01*
X17092986Y-27801827D01*
X17292123Y-27765398D01*
X17484532Y-27730870D01*
X17665854Y-27698979D01*
X17831728Y-27670461D01*
X17977793Y-27646051D01*
X18099688Y-27626484D01*
X18193054Y-27612496D01*
X18253529Y-27604822D01*
X18276753Y-27604197D01*
X18282728Y-27617452D01*
G36*
X26140833Y-21632333D02*
G01*
X26139306Y-21643539D01*
X26126722Y-21646444D01*
X26124189Y-21643342D01*
X26126722Y-21618222D01*
X26133089Y-21614911D01*
X26140833Y-21632333D01*
G37*
X26140833Y-21632333D02*
X26139306Y-21643539D01*
X26126722Y-21646444D01*
X26124189Y-21643342D01*
X26126722Y-21618222D01*
X26133089Y-21614911D01*
X26140833Y-21632333D01*
G36*
X27785758Y-23179684D02*
G01*
X27782376Y-23200010D01*
X27766020Y-23255277D01*
X27745813Y-23286060D01*
X27744534Y-23286789D01*
X27707815Y-23295462D01*
X27642957Y-23301693D01*
X27563132Y-23304176D01*
X27408514Y-23304500D01*
X27414965Y-23203958D01*
X27421417Y-23103417D01*
X27609528Y-23097258D01*
X27797640Y-23091100D01*
X27785758Y-23179684D01*
G37*
X27785758Y-23179684D02*
X27782376Y-23200010D01*
X27766020Y-23255277D01*
X27745813Y-23286060D01*
X27744534Y-23286789D01*
X27707815Y-23295462D01*
X27642957Y-23301693D01*
X27563132Y-23304176D01*
X27408514Y-23304500D01*
X27414965Y-23203958D01*
X27421417Y-23103417D01*
X27609528Y-23097258D01*
X27797640Y-23091100D01*
X27785758Y-23179684D01*
G36*
X27946742Y-23095744D02*
G01*
X27985658Y-23124380D01*
X28004309Y-23171449D01*
X27999105Y-23221847D01*
X27966458Y-23260471D01*
X27948056Y-23269870D01*
X27892854Y-23283272D01*
X27850856Y-23273556D01*
X27834167Y-23242378D01*
X27834197Y-23238300D01*
X27847188Y-23163600D01*
X27879889Y-23112054D01*
X27926628Y-23092833D01*
X27946742Y-23095744D01*
G37*
X27946742Y-23095744D02*
X27985658Y-23124380D01*
X28004309Y-23171449D01*
X27999105Y-23221847D01*
X27966458Y-23260471D01*
X27948056Y-23269870D01*
X27892854Y-23283272D01*
X27850856Y-23273556D01*
X27834167Y-23242378D01*
X27834197Y-23238300D01*
X27847188Y-23163600D01*
X27879889Y-23112054D01*
X27926628Y-23092833D01*
X27946742Y-23095744D01*
G36*
X26687082Y-20469777D02*
G01*
X26682438Y-20531024D01*
X26672261Y-20568800D01*
X26649461Y-20587261D01*
X26606500Y-20598444D01*
X26593340Y-20600665D01*
X26535256Y-20607670D01*
X26445244Y-20616586D01*
X26330557Y-20626757D01*
X26198447Y-20637527D01*
X26056167Y-20648240D01*
X25998985Y-20652443D01*
X25857539Y-20663466D01*
X25727736Y-20674430D01*
X25617223Y-20684640D01*
X25533650Y-20693404D01*
X25484667Y-20700029D01*
X25467777Y-20702536D01*
X25398953Y-20708683D01*
X25302216Y-20713937D01*
X25187972Y-20717806D01*
X25066625Y-20719799D01*
X24743833Y-20722167D01*
X24743833Y-20606999D01*
X24745422Y-20560713D01*
X24752534Y-20506015D01*
X24763422Y-20479725D01*
X24788311Y-20475546D01*
X24850398Y-20469311D01*
X24944483Y-20461392D01*
X25065408Y-20452135D01*
X25208016Y-20441886D01*
X25367150Y-20430990D01*
X25537651Y-20419793D01*
X25714363Y-20408640D01*
X25892128Y-20397877D01*
X26065788Y-20387850D01*
X26230187Y-20378904D01*
X26380165Y-20371386D01*
X26693581Y-20356520D01*
X26687082Y-20469777D01*
G37*
X26687082Y-20469777D02*
X26682438Y-20531024D01*
X26672261Y-20568800D01*
X26649461Y-20587261D01*
X26606500Y-20598444D01*
X26593340Y-20600665D01*
X26535256Y-20607670D01*
X26445244Y-20616586D01*
X26330557Y-20626757D01*
X26198447Y-20637527D01*
X26056167Y-20648240D01*
X25998985Y-20652443D01*
X25857539Y-20663466D01*
X25727736Y-20674430D01*
X25617223Y-20684640D01*
X25533650Y-20693404D01*
X25484667Y-20700029D01*
X25467777Y-20702536D01*
X25398953Y-20708683D01*
X25302216Y-20713937D01*
X25187972Y-20717806D01*
X25066625Y-20719799D01*
X24743833Y-20722167D01*
X24743833Y-20606999D01*
X24745422Y-20560713D01*
X24752534Y-20506015D01*
X24763422Y-20479725D01*
X24788311Y-20475546D01*
X24850398Y-20469311D01*
X24944483Y-20461392D01*
X25065408Y-20452135D01*
X25208016Y-20441886D01*
X25367150Y-20430990D01*
X25537651Y-20419793D01*
X25714363Y-20408640D01*
X25892128Y-20397877D01*
X26065788Y-20387850D01*
X26230187Y-20378904D01*
X26380165Y-20371386D01*
X26693581Y-20356520D01*
X26687082Y-20469777D01*
G36*
X23232593Y-22016887D02*
G01*
X23261867Y-22028593D01*
X23290442Y-22052402D01*
X23312531Y-22075891D01*
X23330768Y-22117748D01*
X23327213Y-22177710D01*
X23317946Y-22219379D01*
X23295419Y-22253445D01*
X23251249Y-22269971D01*
X23246629Y-22270954D01*
X23162597Y-22284426D01*
X23101911Y-22279051D01*
X23048699Y-22250223D01*
X22987086Y-22193338D01*
X22970260Y-22175942D01*
X22927443Y-22125145D01*
X22915084Y-22089748D01*
X22936119Y-22065072D01*
X22993485Y-22046439D01*
X23090118Y-22029169D01*
X23123209Y-22024133D01*
X23190435Y-22015871D01*
X23232593Y-22016887D01*
G37*
X23232593Y-22016887D02*
X23261867Y-22028593D01*
X23290442Y-22052402D01*
X23312531Y-22075891D01*
X23330768Y-22117748D01*
X23327213Y-22177710D01*
X23317946Y-22219379D01*
X23295419Y-22253445D01*
X23251249Y-22269971D01*
X23246629Y-22270954D01*
X23162597Y-22284426D01*
X23101911Y-22279051D01*
X23048699Y-22250223D01*
X22987086Y-22193338D01*
X22970260Y-22175942D01*
X22927443Y-22125145D01*
X22915084Y-22089748D01*
X22936119Y-22065072D01*
X22993485Y-22046439D01*
X23090118Y-22029169D01*
X23123209Y-22024133D01*
X23190435Y-22015871D01*
X23232593Y-22016887D01*
G36*
X26712550Y-20678849D02*
G01*
X26773198Y-20729574D01*
X26774359Y-20730984D01*
X26786636Y-20757465D01*
X26761073Y-20772622D01*
X26742608Y-20775687D01*
X26684491Y-20782127D01*
X26593178Y-20790778D01*
X26473889Y-20801226D01*
X26331846Y-20813054D01*
X26172271Y-20825844D01*
X26000385Y-20839180D01*
X25821410Y-20852646D01*
X25640568Y-20865825D01*
X25463079Y-20878300D01*
X25294167Y-20889656D01*
X25277082Y-20890751D01*
X25165075Y-20896846D01*
X25063567Y-20900652D01*
X24983130Y-20901859D01*
X24934333Y-20900158D01*
X24934209Y-20900144D01*
X24866397Y-20894204D01*
X24807333Y-20891409D01*
X24768450Y-20886890D01*
X24722770Y-20870845D01*
X24712152Y-20863401D01*
X24705606Y-20845368D01*
X24733353Y-20819905D01*
X24743313Y-20813241D01*
X24761194Y-20804520D01*
X24786400Y-20796730D01*
X24822813Y-20789480D01*
X24874314Y-20782381D01*
X24944783Y-20775044D01*
X25038103Y-20767080D01*
X25158153Y-20758098D01*
X25308816Y-20747709D01*
X25493971Y-20735525D01*
X25717500Y-20721155D01*
X25784063Y-20716854D01*
X25952270Y-20705561D01*
X26110201Y-20694381D01*
X26251461Y-20683804D01*
X26369653Y-20674318D01*
X26458382Y-20666409D01*
X26511250Y-20660568D01*
X26528339Y-20658324D01*
X26633601Y-20655802D01*
X26712550Y-20678849D01*
G37*
X26712550Y-20678849D02*
X26773198Y-20729574D01*
X26774359Y-20730984D01*
X26786636Y-20757465D01*
X26761073Y-20772622D01*
X26742608Y-20775687D01*
X26684491Y-20782127D01*
X26593178Y-20790778D01*
X26473889Y-20801226D01*
X26331846Y-20813054D01*
X26172271Y-20825844D01*
X26000385Y-20839180D01*
X25821410Y-20852646D01*
X25640568Y-20865825D01*
X25463079Y-20878300D01*
X25294167Y-20889656D01*
X25277082Y-20890751D01*
X25165075Y-20896846D01*
X25063567Y-20900652D01*
X24983130Y-20901859D01*
X24934333Y-20900158D01*
X24934209Y-20900144D01*
X24866397Y-20894204D01*
X24807333Y-20891409D01*
X24768450Y-20886890D01*
X24722770Y-20870845D01*
X24712152Y-20863401D01*
X24705606Y-20845368D01*
X24733353Y-20819905D01*
X24743313Y-20813241D01*
X24761194Y-20804520D01*
X24786400Y-20796730D01*
X24822813Y-20789480D01*
X24874314Y-20782381D01*
X24944783Y-20775044D01*
X25038103Y-20767080D01*
X25158153Y-20758098D01*
X25308816Y-20747709D01*
X25493971Y-20735525D01*
X25717500Y-20721155D01*
X25784063Y-20716854D01*
X25952270Y-20705561D01*
X26110201Y-20694381D01*
X26251461Y-20683804D01*
X26369653Y-20674318D01*
X26458382Y-20666409D01*
X26511250Y-20660568D01*
X26528339Y-20658324D01*
X26633601Y-20655802D01*
X26712550Y-20678849D01*
G36*
X27195995Y-23156333D02*
G01*
X27191678Y-23168236D01*
X27172411Y-23202290D01*
X27140305Y-23216795D01*
X27080680Y-23219833D01*
X27077473Y-23219830D01*
X27020260Y-23216650D01*
X26993883Y-23204182D01*
X26987500Y-23177500D01*
X26982829Y-23151881D01*
X26961993Y-23135062D01*
X26936446Y-23153320D01*
X26935986Y-23154152D01*
X26934241Y-23186878D01*
X26944303Y-23237986D01*
X26963378Y-23304500D01*
X26797000Y-23304500D01*
X26797000Y-23092833D01*
X27218131Y-23092833D01*
X27195995Y-23156333D01*
G37*
X27195995Y-23156333D02*
X27191678Y-23168236D01*
X27172411Y-23202290D01*
X27140305Y-23216795D01*
X27080680Y-23219833D01*
X27077473Y-23219830D01*
X27020260Y-23216650D01*
X26993883Y-23204182D01*
X26987500Y-23177500D01*
X26982829Y-23151881D01*
X26961993Y-23135062D01*
X26936446Y-23153320D01*
X26935986Y-23154152D01*
X26934241Y-23186878D01*
X26944303Y-23237986D01*
X26963378Y-23304500D01*
X26797000Y-23304500D01*
X26797000Y-23092833D01*
X27218131Y-23092833D01*
X27195995Y-23156333D01*
G36*
X26982158Y-20879081D02*
G01*
X27023215Y-20943792D01*
X27036305Y-20971876D01*
X27047250Y-21009681D01*
X27035647Y-21040095D01*
X26998057Y-21082028D01*
X26983479Y-21096894D01*
X26946041Y-21131593D01*
X26925332Y-21145421D01*
X26913204Y-21141806D01*
X26875636Y-21122152D01*
X26830204Y-21093793D01*
X26791930Y-21066366D01*
X26775833Y-21049510D01*
X26781869Y-21026814D01*
X26807133Y-20977879D01*
X26842810Y-20924661D01*
X26878711Y-20883591D01*
X26891910Y-20872744D01*
X26939172Y-20855725D01*
X26982158Y-20879081D01*
G37*
X26982158Y-20879081D02*
X27023215Y-20943792D01*
X27036305Y-20971876D01*
X27047250Y-21009681D01*
X27035647Y-21040095D01*
X26998057Y-21082028D01*
X26983479Y-21096894D01*
X26946041Y-21131593D01*
X26925332Y-21145421D01*
X26913204Y-21141806D01*
X26875636Y-21122152D01*
X26830204Y-21093793D01*
X26791930Y-21066366D01*
X26775833Y-21049510D01*
X26781869Y-21026814D01*
X26807133Y-20977879D01*
X26842810Y-20924661D01*
X26878711Y-20883591D01*
X26891910Y-20872744D01*
X26939172Y-20855725D01*
X26982158Y-20879081D01*
G36*
X13035404Y-54263991D02*
G01*
X13066382Y-54301699D01*
X13101233Y-54357288D01*
X13132524Y-54430818D01*
X13153662Y-54563607D01*
X13140602Y-54713162D01*
X13093417Y-54874583D01*
X13087209Y-54890908D01*
X13039785Y-55033844D01*
X12991865Y-55207572D01*
X12945854Y-55402028D01*
X12904157Y-55607148D01*
X12869179Y-55812867D01*
X12867733Y-55822350D01*
X12837151Y-56011869D01*
X12808521Y-56165269D01*
X12780528Y-56288374D01*
X12751853Y-56387005D01*
X12721180Y-56466984D01*
X12706207Y-56498326D01*
X12674262Y-56543600D01*
X12643184Y-56553572D01*
X12627727Y-56548310D01*
X12604052Y-56525982D01*
X12587713Y-56485291D01*
X12578899Y-56423682D01*
X12577799Y-56338599D01*
X12584602Y-56227487D01*
X12599496Y-56087793D01*
X12622670Y-55916960D01*
X12654313Y-55712434D01*
X12694613Y-55471660D01*
X12743760Y-55192083D01*
X12762018Y-55091552D01*
X12807708Y-54855155D01*
X12850096Y-54659486D01*
X12889494Y-54503498D01*
X12926213Y-54386147D01*
X12960567Y-54306387D01*
X12992867Y-54263173D01*
X13023425Y-54255460D01*
X13035404Y-54263991D01*
G37*
X13035404Y-54263991D02*
X13066382Y-54301699D01*
X13101233Y-54357288D01*
X13132524Y-54430818D01*
X13153662Y-54563607D01*
X13140602Y-54713162D01*
X13093417Y-54874583D01*
X13087209Y-54890908D01*
X13039785Y-55033844D01*
X12991865Y-55207572D01*
X12945854Y-55402028D01*
X12904157Y-55607148D01*
X12869179Y-55812867D01*
X12867733Y-55822350D01*
X12837151Y-56011869D01*
X12808521Y-56165269D01*
X12780528Y-56288374D01*
X12751853Y-56387005D01*
X12721180Y-56466984D01*
X12706207Y-56498326D01*
X12674262Y-56543600D01*
X12643184Y-56553572D01*
X12627727Y-56548310D01*
X12604052Y-56525982D01*
X12587713Y-56485291D01*
X12578899Y-56423682D01*
X12577799Y-56338599D01*
X12584602Y-56227487D01*
X12599496Y-56087793D01*
X12622670Y-55916960D01*
X12654313Y-55712434D01*
X12694613Y-55471660D01*
X12743760Y-55192083D01*
X12762018Y-55091552D01*
X12807708Y-54855155D01*
X12850096Y-54659486D01*
X12889494Y-54503498D01*
X12926213Y-54386147D01*
X12960567Y-54306387D01*
X12992867Y-54263173D01*
X13023425Y-54255460D01*
X13035404Y-54263991D01*
G36*
X23208831Y-54412345D02*
G01*
X23292820Y-54454895D01*
X23395906Y-54534435D01*
X23518434Y-54651181D01*
X23578127Y-54715274D01*
X23668130Y-54821457D01*
X23759609Y-54938981D01*
X23849008Y-55062347D01*
X23932776Y-55186059D01*
X24007358Y-55304616D01*
X24069203Y-55412520D01*
X24114756Y-55504274D01*
X24140465Y-55574379D01*
X24142776Y-55617336D01*
X24132424Y-55636326D01*
X24109918Y-55644269D01*
X24072004Y-55626760D01*
X24011202Y-55581778D01*
X23948014Y-55525846D01*
X23840075Y-55409758D01*
X23716669Y-55255194D01*
X23577506Y-55061805D01*
X23522491Y-54985528D01*
X23444786Y-54885830D01*
X23368757Y-54795875D01*
X23304991Y-54728608D01*
X23284846Y-54709510D01*
X23226885Y-54657678D01*
X23185827Y-54629632D01*
X23152005Y-54619999D01*
X23115758Y-54623407D01*
X23076561Y-54629063D01*
X23054870Y-54618819D01*
X23050500Y-54581892D01*
X23050726Y-54572105D01*
X23065003Y-54500211D01*
X23096187Y-54440647D01*
X23136825Y-54408390D01*
X23143597Y-54406564D01*
X23208831Y-54412345D01*
G37*
X23208831Y-54412345D02*
X23292820Y-54454895D01*
X23395906Y-54534435D01*
X23518434Y-54651181D01*
X23578127Y-54715274D01*
X23668130Y-54821457D01*
X23759609Y-54938981D01*
X23849008Y-55062347D01*
X23932776Y-55186059D01*
X24007358Y-55304616D01*
X24069203Y-55412520D01*
X24114756Y-55504274D01*
X24140465Y-55574379D01*
X24142776Y-55617336D01*
X24132424Y-55636326D01*
X24109918Y-55644269D01*
X24072004Y-55626760D01*
X24011202Y-55581778D01*
X23948014Y-55525846D01*
X23840075Y-55409758D01*
X23716669Y-55255194D01*
X23577506Y-55061805D01*
X23522491Y-54985528D01*
X23444786Y-54885830D01*
X23368757Y-54795875D01*
X23304991Y-54728608D01*
X23284846Y-54709510D01*
X23226885Y-54657678D01*
X23185827Y-54629632D01*
X23152005Y-54619999D01*
X23115758Y-54623407D01*
X23076561Y-54629063D01*
X23054870Y-54618819D01*
X23050500Y-54581892D01*
X23050726Y-54572105D01*
X23065003Y-54500211D01*
X23096187Y-54440647D01*
X23136825Y-54408390D01*
X23143597Y-54406564D01*
X23208831Y-54412345D01*
G36*
X13874788Y-55429465D02*
G01*
X13962509Y-55461127D01*
X14040882Y-55530913D01*
X14112376Y-55640813D01*
X14139240Y-55694170D01*
X14181486Y-55801346D01*
X14202384Y-55907117D01*
X14206932Y-56032160D01*
X14206900Y-56034272D01*
X14191120Y-56158727D01*
X14148897Y-56251945D01*
X14080859Y-56312532D01*
X14024110Y-56337564D01*
X13967558Y-56340497D01*
X13910926Y-56312518D01*
X13877630Y-56281357D01*
X13826408Y-56200328D01*
X13782423Y-56089632D01*
X13747992Y-55957091D01*
X13725429Y-55810523D01*
X13717051Y-55657750D01*
X13717108Y-55640391D01*
X13724869Y-55538612D01*
X13747385Y-55472222D01*
X13787263Y-55436602D01*
X13847111Y-55427127D01*
X13874788Y-55429465D01*
G37*
X13874788Y-55429465D02*
X13962509Y-55461127D01*
X14040882Y-55530913D01*
X14112376Y-55640813D01*
X14139240Y-55694170D01*
X14181486Y-55801346D01*
X14202384Y-55907117D01*
X14206932Y-56032160D01*
X14206900Y-56034272D01*
X14191120Y-56158727D01*
X14148897Y-56251945D01*
X14080859Y-56312532D01*
X14024110Y-56337564D01*
X13967558Y-56340497D01*
X13910926Y-56312518D01*
X13877630Y-56281357D01*
X13826408Y-56200328D01*
X13782423Y-56089632D01*
X13747992Y-55957091D01*
X13725429Y-55810523D01*
X13717051Y-55657750D01*
X13717108Y-55640391D01*
X13724869Y-55538612D01*
X13747385Y-55472222D01*
X13787263Y-55436602D01*
X13847111Y-55427127D01*
X13874788Y-55429465D01*
G36*
X17245789Y-55298415D02*
G01*
X17253675Y-55355013D01*
X17240760Y-55430839D01*
X17210538Y-55517934D01*
X17166499Y-55608341D01*
X17112137Y-55694100D01*
X17050944Y-55767255D01*
X16986414Y-55819846D01*
X16958323Y-55835290D01*
X16906494Y-55849291D01*
X16878995Y-55831098D01*
X16876199Y-55782705D01*
X16898474Y-55706106D01*
X16946192Y-55603296D01*
X16982757Y-55538518D01*
X17039820Y-55451140D01*
X17098199Y-55374514D01*
X17152351Y-55315161D01*
X17196733Y-55279602D01*
X17225801Y-55274360D01*
X17245789Y-55298415D01*
G37*
X17245789Y-55298415D02*
X17253675Y-55355013D01*
X17240760Y-55430839D01*
X17210538Y-55517934D01*
X17166499Y-55608341D01*
X17112137Y-55694100D01*
X17050944Y-55767255D01*
X16986414Y-55819846D01*
X16958323Y-55835290D01*
X16906494Y-55849291D01*
X16878995Y-55831098D01*
X16876199Y-55782705D01*
X16898474Y-55706106D01*
X16946192Y-55603296D01*
X16982757Y-55538518D01*
X17039820Y-55451140D01*
X17098199Y-55374514D01*
X17152351Y-55315161D01*
X17196733Y-55279602D01*
X17225801Y-55274360D01*
X17245789Y-55298415D01*
G36*
X13431984Y-51583875D02*
G01*
X13503492Y-51600683D01*
X13549952Y-51641558D01*
X13571735Y-51708769D01*
X13569213Y-51804587D01*
X13542759Y-51931282D01*
X13492745Y-52091125D01*
X13457597Y-52190170D01*
X13416328Y-52298553D01*
X13381461Y-52377997D01*
X13349909Y-52435349D01*
X13318584Y-52477458D01*
X13292717Y-52501594D01*
X13259204Y-52509664D01*
X13232828Y-52481251D01*
X13213024Y-52414963D01*
X13199227Y-52309407D01*
X13190870Y-52163192D01*
X13189129Y-52098043D01*
X13191551Y-51928883D01*
X13206268Y-51796849D01*
X13234349Y-51699102D01*
X13276867Y-51632799D01*
X13334891Y-51595101D01*
X13409493Y-51583167D01*
X13431984Y-51583875D01*
G37*
X13431984Y-51583875D02*
X13503492Y-51600683D01*
X13549952Y-51641558D01*
X13571735Y-51708769D01*
X13569213Y-51804587D01*
X13542759Y-51931282D01*
X13492745Y-52091125D01*
X13457597Y-52190170D01*
X13416328Y-52298553D01*
X13381461Y-52377997D01*
X13349909Y-52435349D01*
X13318584Y-52477458D01*
X13292717Y-52501594D01*
X13259204Y-52509664D01*
X13232828Y-52481251D01*
X13213024Y-52414963D01*
X13199227Y-52309407D01*
X13190870Y-52163192D01*
X13189129Y-52098043D01*
X13191551Y-51928883D01*
X13206268Y-51796849D01*
X13234349Y-51699102D01*
X13276867Y-51632799D01*
X13334891Y-51595101D01*
X13409493Y-51583167D01*
X13431984Y-51583875D01*
G36*
X22362963Y-55892136D02*
G01*
X22418468Y-55936815D01*
X22472571Y-56005182D01*
X22518993Y-56087489D01*
X22551451Y-56173989D01*
X22563667Y-56254932D01*
X22563216Y-56271091D01*
X22553593Y-56293204D01*
X22523495Y-56283323D01*
X22522088Y-56282552D01*
X22476624Y-56246925D01*
X22418963Y-56188378D01*
X22359521Y-56119030D01*
X22308713Y-56051002D01*
X22276955Y-55996417D01*
X22263618Y-55938614D01*
X22278970Y-55895880D01*
X22322105Y-55880000D01*
X22362963Y-55892136D01*
G37*
X22362963Y-55892136D02*
X22418468Y-55936815D01*
X22472571Y-56005182D01*
X22518993Y-56087489D01*
X22551451Y-56173989D01*
X22563667Y-56254932D01*
X22563216Y-56271091D01*
X22553593Y-56293204D01*
X22523495Y-56283323D01*
X22522088Y-56282552D01*
X22476624Y-56246925D01*
X22418963Y-56188378D01*
X22359521Y-56119030D01*
X22308713Y-56051002D01*
X22276955Y-55996417D01*
X22263618Y-55938614D01*
X22278970Y-55895880D01*
X22322105Y-55880000D01*
X22362963Y-55892136D01*
G36*
X24115403Y-55763845D02*
G01*
X24157438Y-55782904D01*
X24170790Y-55822812D01*
X24150323Y-55870433D01*
X24124230Y-55891622D01*
X24084469Y-55893959D01*
X24055340Y-55865914D01*
X24048773Y-55814106D01*
X24065503Y-55775014D01*
X24108544Y-55763583D01*
X24115403Y-55763845D01*
G37*
X24115403Y-55763845D02*
X24157438Y-55782904D01*
X24170790Y-55822812D01*
X24150323Y-55870433D01*
X24124230Y-55891622D01*
X24084469Y-55893959D01*
X24055340Y-55865914D01*
X24048773Y-55814106D01*
X24065503Y-55775014D01*
X24108544Y-55763583D01*
X24115403Y-55763845D01*
G36*
X16525347Y-55884077D02*
G01*
X16569583Y-55908981D01*
X16588528Y-55951160D01*
X16574973Y-55994642D01*
X16556756Y-56012591D01*
X16511914Y-56026079D01*
X16468790Y-55997770D01*
X16457997Y-55973733D01*
X16463297Y-55930116D01*
X16488464Y-55894506D01*
X16525035Y-55884015D01*
X16525347Y-55884077D01*
G37*
X16525347Y-55884077D02*
X16569583Y-55908981D01*
X16588528Y-55951160D01*
X16574973Y-55994642D01*
X16556756Y-56012591D01*
X16511914Y-56026079D01*
X16468790Y-55997770D01*
X16457997Y-55973733D01*
X16463297Y-55930116D01*
X16488464Y-55894506D01*
X16525035Y-55884015D01*
X16525347Y-55884077D01*
G36*
X31181947Y-53802064D02*
G01*
X31198590Y-53824821D01*
X31200869Y-53840445D01*
X31189808Y-53873991D01*
X31160858Y-53924082D01*
X31112199Y-53993130D01*
X31042012Y-54083548D01*
X30948477Y-54197749D01*
X30829776Y-54338146D01*
X30684089Y-54507153D01*
X30682056Y-54509495D01*
X30507463Y-54717902D01*
X30353396Y-54918430D01*
X30213492Y-55120814D01*
X30081386Y-55334791D01*
X29950715Y-55570097D01*
X29815114Y-55836465D01*
X29784490Y-55899529D01*
X29711909Y-56053699D01*
X29636910Y-56218370D01*
X29566743Y-56377488D01*
X29508660Y-56515000D01*
X29476481Y-56593392D01*
X29433162Y-56697935D01*
X29396394Y-56785519D01*
X29369301Y-56848724D01*
X29355005Y-56880125D01*
X29352299Y-56884770D01*
X29333869Y-56901236D01*
X29299058Y-56911106D01*
X29239232Y-56915906D01*
X29145755Y-56917167D01*
X28956000Y-56917167D01*
X28956000Y-56820667D01*
X28955882Y-56808455D01*
X28949579Y-56753495D01*
X28934171Y-56739562D01*
X28910329Y-56766537D01*
X28878727Y-56834300D01*
X28862539Y-56872337D01*
X28840070Y-56903213D01*
X28804826Y-56915171D01*
X28742035Y-56917167D01*
X28706074Y-56916666D01*
X28657529Y-56913775D01*
X28638500Y-56909168D01*
X28639377Y-56905251D01*
X28651052Y-56872896D01*
X28671973Y-56821058D01*
X28674269Y-56814923D01*
X28686163Y-56761102D01*
X28696106Y-56681440D01*
X28703738Y-56585644D01*
X28708703Y-56483418D01*
X28710642Y-56384469D01*
X28709197Y-56298502D01*
X28704010Y-56235221D01*
X28694723Y-56204333D01*
X28676137Y-56196488D01*
X28644803Y-56211815D01*
X28602446Y-56257642D01*
X28546747Y-56336581D01*
X28475391Y-56451238D01*
X28421867Y-56539124D01*
X28358044Y-56637958D01*
X28311657Y-56700266D01*
X28281720Y-56726800D01*
X28267245Y-56718310D01*
X28267245Y-56675546D01*
X28280731Y-56599260D01*
X28286674Y-56567089D01*
X28294168Y-56428747D01*
X28276270Y-56291686D01*
X28234871Y-56173466D01*
X28204127Y-56121339D01*
X28174343Y-56097712D01*
X28134698Y-56095658D01*
X28099225Y-56106631D01*
X28061935Y-56141090D01*
X28020994Y-56207183D01*
X27974865Y-56284131D01*
X27927820Y-56336387D01*
X27878079Y-56358614D01*
X27818015Y-56356420D01*
X27809245Y-56354898D01*
X27767543Y-56353379D01*
X27743311Y-56369131D01*
X27735020Y-56408031D01*
X27741141Y-56475959D01*
X27760143Y-56578791D01*
X27765703Y-56606891D01*
X27778816Y-56682667D01*
X27785565Y-56737885D01*
X27784566Y-56762156D01*
X27781859Y-56762914D01*
X27763214Y-56744905D01*
X27737524Y-56702175D01*
X27723661Y-56676055D01*
X27691536Y-56630110D01*
X27659945Y-56618860D01*
X27620479Y-56642203D01*
X27564727Y-56700033D01*
X27559891Y-56705469D01*
X27513654Y-56755890D01*
X27488196Y-56777579D01*
X27477388Y-56773804D01*
X27475099Y-56747833D01*
X27477959Y-56713395D01*
X27489052Y-56645279D01*
X27505660Y-56567917D01*
X27522616Y-56490981D01*
X27535578Y-56398114D01*
X27530902Y-56342809D01*
X27508596Y-56324500D01*
X27494543Y-56328055D01*
X27457512Y-56358382D01*
X27408216Y-56421387D01*
X27345141Y-56519130D01*
X27266775Y-56653669D01*
X27240447Y-56699685D01*
X27174228Y-56806800D01*
X27122759Y-56875116D01*
X27085626Y-56905130D01*
X27062411Y-56897339D01*
X27058118Y-56877066D01*
X27062267Y-56814941D01*
X27078636Y-56717524D01*
X27106575Y-56587763D01*
X27145432Y-56428605D01*
X27194554Y-56242998D01*
X27253292Y-56033887D01*
X27272536Y-55967124D01*
X27337352Y-55745571D01*
X27395135Y-55560186D01*
X27449419Y-55407378D01*
X27503739Y-55283555D01*
X27561628Y-55185125D01*
X27626622Y-55108496D01*
X27702253Y-55050076D01*
X27792058Y-55006273D01*
X27899569Y-54973496D01*
X28028321Y-54948152D01*
X28181849Y-54926650D01*
X28363686Y-54905397D01*
X28490280Y-54890292D01*
X28780103Y-54848565D01*
X29042577Y-54799202D01*
X29288208Y-54740068D01*
X29527500Y-54669030D01*
X29695595Y-54612286D01*
X29922196Y-54526167D01*
X30116565Y-54438332D01*
X30284730Y-54345674D01*
X30432720Y-54245085D01*
X30566564Y-54133459D01*
X30615454Y-54091101D01*
X30765338Y-53982411D01*
X30930565Y-53887199D01*
X31092383Y-53816762D01*
X31111114Y-53810254D01*
X31157365Y-53797555D01*
X31181947Y-53802064D01*
G37*
X31181947Y-53802064D02*
X31198590Y-53824821D01*
X31200869Y-53840445D01*
X31189808Y-53873991D01*
X31160858Y-53924082D01*
X31112199Y-53993130D01*
X31042012Y-54083548D01*
X30948477Y-54197749D01*
X30829776Y-54338146D01*
X30684089Y-54507153D01*
X30682056Y-54509495D01*
X30507463Y-54717902D01*
X30353396Y-54918430D01*
X30213492Y-55120814D01*
X30081386Y-55334791D01*
X29950715Y-55570097D01*
X29815114Y-55836465D01*
X29784490Y-55899529D01*
X29711909Y-56053699D01*
X29636910Y-56218370D01*
X29566743Y-56377488D01*
X29508660Y-56515000D01*
X29476481Y-56593392D01*
X29433162Y-56697935D01*
X29396394Y-56785519D01*
X29369301Y-56848724D01*
X29355005Y-56880125D01*
X29352299Y-56884770D01*
X29333869Y-56901236D01*
X29299058Y-56911106D01*
X29239232Y-56915906D01*
X29145755Y-56917167D01*
X28956000Y-56917167D01*
X28956000Y-56820667D01*
X28955882Y-56808455D01*
X28949579Y-56753495D01*
X28934171Y-56739562D01*
X28910329Y-56766537D01*
X28878727Y-56834300D01*
X28862539Y-56872337D01*
X28840070Y-56903213D01*
X28804826Y-56915171D01*
X28742035Y-56917167D01*
X28706074Y-56916666D01*
X28657529Y-56913775D01*
X28638500Y-56909168D01*
X28639377Y-56905251D01*
X28651052Y-56872896D01*
X28671973Y-56821058D01*
X28674269Y-56814923D01*
X28686163Y-56761102D01*
X28696106Y-56681440D01*
X28703738Y-56585644D01*
X28708703Y-56483418D01*
X28710642Y-56384469D01*
X28709197Y-56298502D01*
X28704010Y-56235221D01*
X28694723Y-56204333D01*
X28676137Y-56196488D01*
X28644803Y-56211815D01*
X28602446Y-56257642D01*
X28546747Y-56336581D01*
X28475391Y-56451238D01*
X28421867Y-56539124D01*
X28358044Y-56637958D01*
X28311657Y-56700266D01*
X28281720Y-56726800D01*
X28267245Y-56718310D01*
X28267245Y-56675546D01*
X28280731Y-56599260D01*
X28286674Y-56567089D01*
X28294168Y-56428747D01*
X28276270Y-56291686D01*
X28234871Y-56173466D01*
X28204127Y-56121339D01*
X28174343Y-56097712D01*
X28134698Y-56095658D01*
X28099225Y-56106631D01*
X28061935Y-56141090D01*
X28020994Y-56207183D01*
X27974865Y-56284131D01*
X27927820Y-56336387D01*
X27878079Y-56358614D01*
X27818015Y-56356420D01*
X27809245Y-56354898D01*
X27767543Y-56353379D01*
X27743311Y-56369131D01*
X27735020Y-56408031D01*
X27741141Y-56475959D01*
X27760143Y-56578791D01*
X27765703Y-56606891D01*
X27778816Y-56682667D01*
X27785565Y-56737885D01*
X27784566Y-56762156D01*
X27781859Y-56762914D01*
X27763214Y-56744905D01*
X27737524Y-56702175D01*
X27723661Y-56676055D01*
X27691536Y-56630110D01*
X27659945Y-56618860D01*
X27620479Y-56642203D01*
X27564727Y-56700033D01*
X27559891Y-56705469D01*
X27513654Y-56755890D01*
X27488196Y-56777579D01*
X27477388Y-56773804D01*
X27475099Y-56747833D01*
X27477959Y-56713395D01*
X27489052Y-56645279D01*
X27505660Y-56567917D01*
X27522616Y-56490981D01*
X27535578Y-56398114D01*
X27530902Y-56342809D01*
X27508596Y-56324500D01*
X27494543Y-56328055D01*
X27457512Y-56358382D01*
X27408216Y-56421387D01*
X27345141Y-56519130D01*
X27266775Y-56653669D01*
X27240447Y-56699685D01*
X27174228Y-56806800D01*
X27122759Y-56875116D01*
X27085626Y-56905130D01*
X27062411Y-56897339D01*
X27058118Y-56877066D01*
X27062267Y-56814941D01*
X27078636Y-56717524D01*
X27106575Y-56587763D01*
X27145432Y-56428605D01*
X27194554Y-56242998D01*
X27253292Y-56033887D01*
X27272536Y-55967124D01*
X27337352Y-55745571D01*
X27395135Y-55560186D01*
X27449419Y-55407378D01*
X27503739Y-55283555D01*
X27561628Y-55185125D01*
X27626622Y-55108496D01*
X27702253Y-55050076D01*
X27792058Y-55006273D01*
X27899569Y-54973496D01*
X28028321Y-54948152D01*
X28181849Y-54926650D01*
X28363686Y-54905397D01*
X28490280Y-54890292D01*
X28780103Y-54848565D01*
X29042577Y-54799202D01*
X29288208Y-54740068D01*
X29527500Y-54669030D01*
X29695595Y-54612286D01*
X29922196Y-54526167D01*
X30116565Y-54438332D01*
X30284730Y-54345674D01*
X30432720Y-54245085D01*
X30566564Y-54133459D01*
X30615454Y-54091101D01*
X30765338Y-53982411D01*
X30930565Y-53887199D01*
X31092383Y-53816762D01*
X31111114Y-53810254D01*
X31157365Y-53797555D01*
X31181947Y-53802064D01*
G36*
X24285547Y-55246262D02*
G01*
X24345006Y-55308526D01*
X24388511Y-55384278D01*
X24405167Y-55455615D01*
X24403334Y-55475979D01*
X24384975Y-55496535D01*
X24346773Y-55479948D01*
X24288569Y-55426178D01*
X24279294Y-55416037D01*
X24233918Y-55354478D01*
X24206960Y-55297303D01*
X24198531Y-55251202D01*
X24208744Y-55222867D01*
X24237712Y-55218990D01*
X24285547Y-55246262D01*
G37*
X24285547Y-55246262D02*
X24345006Y-55308526D01*
X24388511Y-55384278D01*
X24405167Y-55455615D01*
X24403334Y-55475979D01*
X24384975Y-55496535D01*
X24346773Y-55479948D01*
X24288569Y-55426178D01*
X24279294Y-55416037D01*
X24233918Y-55354478D01*
X24206960Y-55297303D01*
X24198531Y-55251202D01*
X24208744Y-55222867D01*
X24237712Y-55218990D01*
X24285547Y-55246262D01*
G36*
X17997765Y-56705511D02*
G01*
X18024271Y-56738234D01*
X18024166Y-56787806D01*
X17995657Y-56823824D01*
X17951754Y-56830044D01*
X17909227Y-56803433D01*
X17898940Y-56784698D01*
X17897688Y-56741569D01*
X17918657Y-56710256D01*
X17958082Y-56694548D01*
X17997765Y-56705511D01*
G37*
X17997765Y-56705511D02*
X18024271Y-56738234D01*
X18024166Y-56787806D01*
X17995657Y-56823824D01*
X17951754Y-56830044D01*
X17909227Y-56803433D01*
X17898940Y-56784698D01*
X17897688Y-56741569D01*
X17918657Y-56710256D01*
X17958082Y-56694548D01*
X17997765Y-56705511D01*
G36*
X14325341Y-56438825D02*
G01*
X14362339Y-56467541D01*
X14368906Y-56509145D01*
X14340661Y-56549189D01*
X14316014Y-56562260D01*
X14269027Y-56560676D01*
X14236884Y-56523947D01*
X14231080Y-56481383D01*
X14254614Y-56444140D01*
X14305898Y-56434480D01*
X14325341Y-56438825D01*
G37*
X14325341Y-56438825D02*
X14362339Y-56467541D01*
X14368906Y-56509145D01*
X14340661Y-56549189D01*
X14316014Y-56562260D01*
X14269027Y-56560676D01*
X14236884Y-56523947D01*
X14231080Y-56481383D01*
X14254614Y-56444140D01*
X14305898Y-56434480D01*
X14325341Y-56438825D01*
G36*
X16819796Y-56038322D02*
G01*
X16845154Y-56072498D01*
X16840443Y-56124901D01*
X16824619Y-56143671D01*
X16779970Y-56151359D01*
X16743884Y-56135270D01*
X16732250Y-56091667D01*
X16742138Y-56050246D01*
X16779970Y-56031974D01*
X16819796Y-56038322D01*
G37*
X16819796Y-56038322D02*
X16845154Y-56072498D01*
X16840443Y-56124901D01*
X16824619Y-56143671D01*
X16779970Y-56151359D01*
X16743884Y-56135270D01*
X16732250Y-56091667D01*
X16742138Y-56050246D01*
X16779970Y-56031974D01*
X16819796Y-56038322D01*
G36*
X16170137Y-53360774D02*
G01*
X16188816Y-53410880D01*
X16189503Y-53418513D01*
X16183847Y-53459852D01*
X16156936Y-53503498D01*
X16102260Y-53560721D01*
X16016389Y-53638354D01*
X15900619Y-53734747D01*
X15770832Y-53836583D01*
X15636114Y-53937095D01*
X15505551Y-54029521D01*
X15388228Y-54107095D01*
X15293230Y-54163054D01*
X15238838Y-54190677D01*
X15198920Y-54204916D01*
X15180784Y-54198185D01*
X15176500Y-54171024D01*
X15182443Y-54156716D01*
X15214533Y-54113971D01*
X15269930Y-54051210D01*
X15343510Y-53973433D01*
X15430146Y-53885643D01*
X15524715Y-53792840D01*
X15622090Y-53700027D01*
X15717147Y-53612206D01*
X15804761Y-53534377D01*
X15879805Y-53471543D01*
X15937156Y-53428705D01*
X15972000Y-53406280D01*
X16062865Y-53358394D01*
X16128533Y-53343252D01*
X16170137Y-53360774D01*
G37*
X16170137Y-53360774D02*
X16188816Y-53410880D01*
X16189503Y-53418513D01*
X16183847Y-53459852D01*
X16156936Y-53503498D01*
X16102260Y-53560721D01*
X16016389Y-53638354D01*
X15900619Y-53734747D01*
X15770832Y-53836583D01*
X15636114Y-53937095D01*
X15505551Y-54029521D01*
X15388228Y-54107095D01*
X15293230Y-54163054D01*
X15238838Y-54190677D01*
X15198920Y-54204916D01*
X15180784Y-54198185D01*
X15176500Y-54171024D01*
X15182443Y-54156716D01*
X15214533Y-54113971D01*
X15269930Y-54051210D01*
X15343510Y-53973433D01*
X15430146Y-53885643D01*
X15524715Y-53792840D01*
X15622090Y-53700027D01*
X15717147Y-53612206D01*
X15804761Y-53534377D01*
X15879805Y-53471543D01*
X15937156Y-53428705D01*
X15972000Y-53406280D01*
X16062865Y-53358394D01*
X16128533Y-53343252D01*
X16170137Y-53360774D01*
G36*
X13514534Y-53891898D02*
G01*
X13588922Y-53904176D01*
X13642712Y-53925682D01*
X13668669Y-53952835D01*
X13659556Y-53982055D01*
X13643594Y-53988419D01*
X13593834Y-53994177D01*
X13525955Y-53995569D01*
X13454349Y-53992868D01*
X13393409Y-53986350D01*
X13357528Y-53976289D01*
X13349954Y-53970760D01*
X13338528Y-53943594D01*
X13360262Y-53917569D01*
X13407898Y-53898033D01*
X13474179Y-53890333D01*
X13514534Y-53891898D01*
G37*
X13514534Y-53891898D02*
X13588922Y-53904176D01*
X13642712Y-53925682D01*
X13668669Y-53952835D01*
X13659556Y-53982055D01*
X13643594Y-53988419D01*
X13593834Y-53994177D01*
X13525955Y-53995569D01*
X13454349Y-53992868D01*
X13393409Y-53986350D01*
X13357528Y-53976289D01*
X13349954Y-53970760D01*
X13338528Y-53943594D01*
X13360262Y-53917569D01*
X13407898Y-53898033D01*
X13474179Y-53890333D01*
X13514534Y-53891898D01*
G36*
X23968477Y-54807399D02*
G01*
X24015548Y-54835483D01*
X24035952Y-54851798D01*
X24079633Y-54903468D01*
X24116862Y-54966301D01*
X24140098Y-55026319D01*
X24141800Y-55069544D01*
X24135345Y-55083305D01*
X24117977Y-55090218D01*
X24082115Y-55070615D01*
X24044450Y-55039359D01*
X23992982Y-54976962D01*
X23954580Y-54908656D01*
X23939500Y-54850286D01*
X23939760Y-54833977D01*
X23946265Y-54806303D01*
X23968477Y-54807399D01*
G37*
X23968477Y-54807399D02*
X24015548Y-54835483D01*
X24035952Y-54851798D01*
X24079633Y-54903468D01*
X24116862Y-54966301D01*
X24140098Y-55026319D01*
X24141800Y-55069544D01*
X24135345Y-55083305D01*
X24117977Y-55090218D01*
X24082115Y-55070615D01*
X24044450Y-55039359D01*
X23992982Y-54976962D01*
X23954580Y-54908656D01*
X23939500Y-54850286D01*
X23939760Y-54833977D01*
X23946265Y-54806303D01*
X23968477Y-54807399D01*
G36*
X13709400Y-54144909D02*
G01*
X13747539Y-54153872D01*
X13774363Y-54181897D01*
X13802745Y-54239352D01*
X13807362Y-54250127D01*
X13837284Y-54334860D01*
X13865753Y-54437636D01*
X13890378Y-54546815D01*
X13908764Y-54650760D01*
X13918520Y-54737831D01*
X13917253Y-54796389D01*
X13896324Y-54857028D01*
X13862986Y-54907514D01*
X13813467Y-54939311D01*
X13745933Y-54943322D01*
X13673474Y-54913578D01*
X13600327Y-54853690D01*
X13530734Y-54767272D01*
X13468932Y-54657935D01*
X13419160Y-54529293D01*
X13399644Y-54463803D01*
X13383077Y-54392807D01*
X13381371Y-54342808D01*
X13394696Y-54302615D01*
X13423221Y-54261039D01*
X13478950Y-54208754D01*
X13575209Y-54161470D01*
X13684761Y-54144333D01*
X13709400Y-54144909D01*
G37*
X13709400Y-54144909D02*
X13747539Y-54153872D01*
X13774363Y-54181897D01*
X13802745Y-54239352D01*
X13807362Y-54250127D01*
X13837284Y-54334860D01*
X13865753Y-54437636D01*
X13890378Y-54546815D01*
X13908764Y-54650760D01*
X13918520Y-54737831D01*
X13917253Y-54796389D01*
X13896324Y-54857028D01*
X13862986Y-54907514D01*
X13813467Y-54939311D01*
X13745933Y-54943322D01*
X13673474Y-54913578D01*
X13600327Y-54853690D01*
X13530734Y-54767272D01*
X13468932Y-54657935D01*
X13419160Y-54529293D01*
X13399644Y-54463803D01*
X13383077Y-54392807D01*
X13381371Y-54342808D01*
X13394696Y-54302615D01*
X13423221Y-54261039D01*
X13478950Y-54208754D01*
X13575209Y-54161470D01*
X13684761Y-54144333D01*
X13709400Y-54144909D01*
G36*
X21748597Y-56606359D02*
G01*
X21779984Y-56630950D01*
X21808742Y-56676908D01*
X21822630Y-56749029D01*
X21816564Y-56826273D01*
X21789883Y-56891290D01*
X21781893Y-56901654D01*
X21739781Y-56930183D01*
X21673013Y-56938333D01*
X21627263Y-56935866D01*
X21588648Y-56920320D01*
X21564035Y-56883337D01*
X21552448Y-56850429D01*
X21554782Y-56808632D01*
X21580363Y-56752760D01*
X21585219Y-56744266D01*
X21630161Y-56682629D01*
X21679442Y-56634676D01*
X21683964Y-56631351D01*
X21722837Y-56606261D01*
X21748597Y-56606359D01*
G37*
X21748597Y-56606359D02*
X21779984Y-56630950D01*
X21808742Y-56676908D01*
X21822630Y-56749029D01*
X21816564Y-56826273D01*
X21789883Y-56891290D01*
X21781893Y-56901654D01*
X21739781Y-56930183D01*
X21673013Y-56938333D01*
X21627263Y-56935866D01*
X21588648Y-56920320D01*
X21564035Y-56883337D01*
X21552448Y-56850429D01*
X21554782Y-56808632D01*
X21580363Y-56752760D01*
X21585219Y-56744266D01*
X21630161Y-56682629D01*
X21679442Y-56634676D01*
X21683964Y-56631351D01*
X21722837Y-56606261D01*
X21748597Y-56606359D01*
G36*
X23007354Y-54813604D02*
G01*
X23058590Y-54849083D01*
X23126778Y-54909689D01*
X23207594Y-54990710D01*
X23296712Y-55087434D01*
X23389806Y-55195149D01*
X23482551Y-55309143D01*
X23570622Y-55424705D01*
X23649693Y-55537124D01*
X23679167Y-55582062D01*
X23741881Y-55688258D01*
X23776933Y-55769190D01*
X23785671Y-55828613D01*
X23769447Y-55870283D01*
X23751568Y-55886021D01*
X23709529Y-55901167D01*
X23685758Y-55893225D01*
X23634437Y-55855129D01*
X23567520Y-55790381D01*
X23489298Y-55704349D01*
X23404063Y-55602405D01*
X23316105Y-55489917D01*
X23229716Y-55372257D01*
X23149188Y-55254793D01*
X23078811Y-55142895D01*
X23022877Y-55041933D01*
X22989004Y-54966052D01*
X22965666Y-54889189D01*
X22962025Y-54833758D01*
X22979421Y-54807010D01*
X23007354Y-54813604D01*
G37*
X23007354Y-54813604D02*
X23058590Y-54849083D01*
X23126778Y-54909689D01*
X23207594Y-54990710D01*
X23296712Y-55087434D01*
X23389806Y-55195149D01*
X23482551Y-55309143D01*
X23570622Y-55424705D01*
X23649693Y-55537124D01*
X23679167Y-55582062D01*
X23741881Y-55688258D01*
X23776933Y-55769190D01*
X23785671Y-55828613D01*
X23769447Y-55870283D01*
X23751568Y-55886021D01*
X23709529Y-55901167D01*
X23685758Y-55893225D01*
X23634437Y-55855129D01*
X23567520Y-55790381D01*
X23489298Y-55704349D01*
X23404063Y-55602405D01*
X23316105Y-55489917D01*
X23229716Y-55372257D01*
X23149188Y-55254793D01*
X23078811Y-55142895D01*
X23022877Y-55041933D01*
X22989004Y-54966052D01*
X22965666Y-54889189D01*
X22962025Y-54833758D01*
X22979421Y-54807010D01*
X23007354Y-54813604D01*
G36*
X15188999Y-50785317D02*
G01*
X15243625Y-50813864D01*
X15268341Y-50854088D01*
X15281527Y-50917796D01*
X15278125Y-50982426D01*
X15256933Y-51028600D01*
X15245126Y-51039731D01*
X15220932Y-51051372D01*
X15193662Y-51037970D01*
X15151297Y-50995792D01*
X15146970Y-50991123D01*
X15085058Y-50912990D01*
X15060189Y-50852806D01*
X15071790Y-50809230D01*
X15077849Y-50802907D01*
X15127549Y-50781497D01*
X15188999Y-50785317D01*
G37*
X15188999Y-50785317D02*
X15243625Y-50813864D01*
X15268341Y-50854088D01*
X15281527Y-50917796D01*
X15278125Y-50982426D01*
X15256933Y-51028600D01*
X15245126Y-51039731D01*
X15220932Y-51051372D01*
X15193662Y-51037970D01*
X15151297Y-50995792D01*
X15146970Y-50991123D01*
X15085058Y-50912990D01*
X15060189Y-50852806D01*
X15071790Y-50809230D01*
X15077849Y-50802907D01*
X15127549Y-50781497D01*
X15188999Y-50785317D01*
G36*
X16374016Y-53747294D02*
G01*
X16374572Y-53748022D01*
X16366706Y-53772745D01*
X16333603Y-53822304D01*
X16279596Y-53891926D01*
X16209020Y-53976842D01*
X16126210Y-54072280D01*
X16035501Y-54173472D01*
X15941226Y-54275646D01*
X15847721Y-54374031D01*
X15759319Y-54463858D01*
X15680356Y-54540356D01*
X15615166Y-54598754D01*
X15568083Y-54634283D01*
X15540067Y-54651159D01*
X15499869Y-54669672D01*
X15472451Y-54665791D01*
X15442595Y-54640238D01*
X15418000Y-54609337D01*
X15407313Y-54570446D01*
X15419235Y-54524568D01*
X15456271Y-54466708D01*
X15520927Y-54391868D01*
X15615708Y-54295054D01*
X15648524Y-54262977D01*
X15765790Y-54153868D01*
X15884637Y-54050888D01*
X16000476Y-53957351D01*
X16108722Y-53876571D01*
X16204786Y-53811862D01*
X16284082Y-53766537D01*
X16342021Y-53743910D01*
X16374016Y-53747294D01*
G37*
X16374016Y-53747294D02*
X16374572Y-53748022D01*
X16366706Y-53772745D01*
X16333603Y-53822304D01*
X16279596Y-53891926D01*
X16209020Y-53976842D01*
X16126210Y-54072280D01*
X16035501Y-54173472D01*
X15941226Y-54275646D01*
X15847721Y-54374031D01*
X15759319Y-54463858D01*
X15680356Y-54540356D01*
X15615166Y-54598754D01*
X15568083Y-54634283D01*
X15540067Y-54651159D01*
X15499869Y-54669672D01*
X15472451Y-54665791D01*
X15442595Y-54640238D01*
X15418000Y-54609337D01*
X15407313Y-54570446D01*
X15419235Y-54524568D01*
X15456271Y-54466708D01*
X15520927Y-54391868D01*
X15615708Y-54295054D01*
X15648524Y-54262977D01*
X15765790Y-54153868D01*
X15884637Y-54050888D01*
X16000476Y-53957351D01*
X16108722Y-53876571D01*
X16204786Y-53811862D01*
X16284082Y-53766537D01*
X16342021Y-53743910D01*
X16374016Y-53747294D01*
G36*
X22157322Y-56213187D02*
G01*
X22221932Y-56287458D01*
X22259249Y-56339201D01*
X22335894Y-56463218D01*
X22379896Y-56567123D01*
X22390267Y-56648792D01*
X22385929Y-56676734D01*
X22369939Y-56708017D01*
X22333755Y-56733662D01*
X22267333Y-56763000D01*
X22187233Y-56792249D01*
X22113781Y-56808034D01*
X22065065Y-56800687D01*
X22035245Y-56770391D01*
X22033103Y-56765539D01*
X22023669Y-56717963D01*
X22017376Y-56641748D01*
X22014252Y-56548309D01*
X22014323Y-56449063D01*
X22017616Y-56355424D01*
X22024158Y-56278807D01*
X22033976Y-56230628D01*
X22063172Y-56186055D01*
X22104494Y-56179414D01*
X22157322Y-56213187D01*
G37*
X22157322Y-56213187D02*
X22221932Y-56287458D01*
X22259249Y-56339201D01*
X22335894Y-56463218D01*
X22379896Y-56567123D01*
X22390267Y-56648792D01*
X22385929Y-56676734D01*
X22369939Y-56708017D01*
X22333755Y-56733662D01*
X22267333Y-56763000D01*
X22187233Y-56792249D01*
X22113781Y-56808034D01*
X22065065Y-56800687D01*
X22035245Y-56770391D01*
X22033103Y-56765539D01*
X22023669Y-56717963D01*
X22017376Y-56641748D01*
X22014252Y-56548309D01*
X22014323Y-56449063D01*
X22017616Y-56355424D01*
X22024158Y-56278807D01*
X22033976Y-56230628D01*
X22063172Y-56186055D01*
X22104494Y-56179414D01*
X22157322Y-56213187D01*
G36*
X9741498Y-55712544D02*
G01*
X9772867Y-55753000D01*
X9776918Y-55762384D01*
X9790938Y-55826320D01*
X9798068Y-55916576D01*
X9798197Y-56020504D01*
X9791212Y-56125452D01*
X9777001Y-56218769D01*
X9749452Y-56307988D01*
X9703322Y-56375955D01*
X9631680Y-56424060D01*
X9526203Y-56460319D01*
X9464881Y-56479973D01*
X9369253Y-56517134D01*
X9261658Y-56563944D01*
X9155786Y-56614696D01*
X9063025Y-56660504D01*
X8968491Y-56704980D01*
X8889516Y-56739891D01*
X8837083Y-56760221D01*
X8835128Y-56760845D01*
X8711034Y-56786491D01*
X8606533Y-56781734D01*
X8525268Y-56750210D01*
X8470883Y-56695556D01*
X8447022Y-56621410D01*
X8457328Y-56531407D01*
X8505445Y-56429186D01*
X8537032Y-56382724D01*
X8652323Y-56253761D01*
X8784208Y-56159832D01*
X8928745Y-56103281D01*
X9081992Y-56086451D01*
X9221067Y-56089842D01*
X9212505Y-56031505D01*
X9212300Y-56030020D01*
X9225230Y-55967454D01*
X9278363Y-55900629D01*
X9370024Y-55831134D01*
X9498534Y-55760555D01*
X9542075Y-55740270D01*
X9632116Y-55706013D01*
X9696585Y-55696826D01*
X9741498Y-55712544D01*
G37*
X9741498Y-55712544D02*
X9772867Y-55753000D01*
X9776918Y-55762384D01*
X9790938Y-55826320D01*
X9798068Y-55916576D01*
X9798197Y-56020504D01*
X9791212Y-56125452D01*
X9777001Y-56218769D01*
X9749452Y-56307988D01*
X9703322Y-56375955D01*
X9631680Y-56424060D01*
X9526203Y-56460319D01*
X9464881Y-56479973D01*
X9369253Y-56517134D01*
X9261658Y-56563944D01*
X9155786Y-56614696D01*
X9063025Y-56660504D01*
X8968491Y-56704980D01*
X8889516Y-56739891D01*
X8837083Y-56760221D01*
X8835128Y-56760845D01*
X8711034Y-56786491D01*
X8606533Y-56781734D01*
X8525268Y-56750210D01*
X8470883Y-56695556D01*
X8447022Y-56621410D01*
X8457328Y-56531407D01*
X8505445Y-56429186D01*
X8537032Y-56382724D01*
X8652323Y-56253761D01*
X8784208Y-56159832D01*
X8928745Y-56103281D01*
X9081992Y-56086451D01*
X9221067Y-56089842D01*
X9212505Y-56031505D01*
X9212300Y-56030020D01*
X9225230Y-55967454D01*
X9278363Y-55900629D01*
X9370024Y-55831134D01*
X9498534Y-55760555D01*
X9542075Y-55740270D01*
X9632116Y-55706013D01*
X9696585Y-55696826D01*
X9741498Y-55712544D01*
G36*
X23748780Y-54417182D02*
G01*
X23779479Y-54455569D01*
X23782524Y-54475658D01*
X23767940Y-54517433D01*
X23726122Y-54543889D01*
X23682115Y-54538158D01*
X23653001Y-54501806D01*
X23649768Y-54464010D01*
X23670490Y-54426313D01*
X23707972Y-54409067D01*
X23748780Y-54417182D01*
G37*
X23748780Y-54417182D02*
X23779479Y-54455569D01*
X23782524Y-54475658D01*
X23767940Y-54517433D01*
X23726122Y-54543889D01*
X23682115Y-54538158D01*
X23653001Y-54501806D01*
X23649768Y-54464010D01*
X23670490Y-54426313D01*
X23707972Y-54409067D01*
X23748780Y-54417182D01*
G36*
X22553478Y-55485232D02*
G01*
X22583910Y-55511599D01*
X22627270Y-55564314D01*
X22686436Y-55646738D01*
X22764283Y-55762232D01*
X22793091Y-55806066D01*
X22913879Y-55998599D01*
X23008176Y-56165025D01*
X23075541Y-56304343D01*
X23115532Y-56415548D01*
X23127706Y-56497640D01*
X23111621Y-56549616D01*
X23098407Y-56562662D01*
X23078466Y-56564995D01*
X23049717Y-56543514D01*
X23003292Y-56493636D01*
X22999084Y-56488786D01*
X22954709Y-56428275D01*
X22901920Y-56343158D01*
X22843624Y-56239591D01*
X22782725Y-56123730D01*
X22722129Y-56001733D01*
X22664742Y-55879756D01*
X22613469Y-55763956D01*
X22571214Y-55660489D01*
X22540885Y-55575512D01*
X22525385Y-55515183D01*
X22527621Y-55485657D01*
X22533097Y-55481850D01*
X22553478Y-55485232D01*
G37*
X22553478Y-55485232D02*
X22583910Y-55511599D01*
X22627270Y-55564314D01*
X22686436Y-55646738D01*
X22764283Y-55762232D01*
X22793091Y-55806066D01*
X22913879Y-55998599D01*
X23008176Y-56165025D01*
X23075541Y-56304343D01*
X23115532Y-56415548D01*
X23127706Y-56497640D01*
X23111621Y-56549616D01*
X23098407Y-56562662D01*
X23078466Y-56564995D01*
X23049717Y-56543514D01*
X23003292Y-56493636D01*
X22999084Y-56488786D01*
X22954709Y-56428275D01*
X22901920Y-56343158D01*
X22843624Y-56239591D01*
X22782725Y-56123730D01*
X22722129Y-56001733D01*
X22664742Y-55879756D01*
X22613469Y-55763956D01*
X22571214Y-55660489D01*
X22540885Y-55575512D01*
X22525385Y-55515183D01*
X22527621Y-55485657D01*
X22533097Y-55481850D01*
X22553478Y-55485232D01*
G36*
X30691667Y-54832715D02*
G01*
X30686180Y-54861016D01*
X30661150Y-54927612D01*
X30618777Y-55020077D01*
X30562264Y-55132665D01*
X30494815Y-55259632D01*
X30419632Y-55395235D01*
X30339918Y-55533727D01*
X30258878Y-55669365D01*
X30179714Y-55796404D01*
X30105629Y-55909100D01*
X30039827Y-56001708D01*
X30038947Y-56002876D01*
X29994226Y-56052115D01*
X29960963Y-56070500D01*
X29944314Y-56057427D01*
X29949435Y-56012292D01*
X29951304Y-56005986D01*
X29980675Y-55923459D01*
X30025568Y-55815121D01*
X30081401Y-55691175D01*
X30143595Y-55561823D01*
X30207571Y-55437267D01*
X30260807Y-55340317D01*
X30339943Y-55205883D01*
X30417207Y-55085050D01*
X30489924Y-54981156D01*
X30555418Y-54897543D01*
X30611014Y-54837552D01*
X30654038Y-54804523D01*
X30681814Y-54801797D01*
X30691667Y-54832715D01*
G37*
X30691667Y-54832715D02*
X30686180Y-54861016D01*
X30661150Y-54927612D01*
X30618777Y-55020077D01*
X30562264Y-55132665D01*
X30494815Y-55259632D01*
X30419632Y-55395235D01*
X30339918Y-55533727D01*
X30258878Y-55669365D01*
X30179714Y-55796404D01*
X30105629Y-55909100D01*
X30039827Y-56001708D01*
X30038947Y-56002876D01*
X29994226Y-56052115D01*
X29960963Y-56070500D01*
X29944314Y-56057427D01*
X29949435Y-56012292D01*
X29951304Y-56005986D01*
X29980675Y-55923459D01*
X30025568Y-55815121D01*
X30081401Y-55691175D01*
X30143595Y-55561823D01*
X30207571Y-55437267D01*
X30260807Y-55340317D01*
X30339943Y-55205883D01*
X30417207Y-55085050D01*
X30489924Y-54981156D01*
X30555418Y-54897543D01*
X30611014Y-54837552D01*
X30654038Y-54804523D01*
X30681814Y-54801797D01*
X30691667Y-54832715D01*
G36*
X17105756Y-54305006D02*
G01*
X17119333Y-54344121D01*
X17101690Y-54388927D01*
X17075053Y-54409729D01*
X17029747Y-54409681D01*
X16988878Y-54372272D01*
X16977921Y-54337127D01*
X17000843Y-54300586D01*
X17028677Y-54282164D01*
X17071892Y-54281161D01*
X17105756Y-54305006D01*
G37*
X17105756Y-54305006D02*
X17119333Y-54344121D01*
X17101690Y-54388927D01*
X17075053Y-54409729D01*
X17029747Y-54409681D01*
X16988878Y-54372272D01*
X16977921Y-54337127D01*
X17000843Y-54300586D01*
X17028677Y-54282164D01*
X17071892Y-54281161D01*
X17105756Y-54305006D01*
G36*
X26760852Y-56867508D02*
G01*
X26775833Y-56897249D01*
X26760286Y-56910840D01*
X26718381Y-56917167D01*
X26687358Y-56916184D01*
X26674742Y-56907468D01*
X26695183Y-56882912D01*
X26726633Y-56863958D01*
X26760852Y-56867508D01*
G37*
X26760852Y-56867508D02*
X26775833Y-56897249D01*
X26760286Y-56910840D01*
X26718381Y-56917167D01*
X26687358Y-56916184D01*
X26674742Y-56907468D01*
X26695183Y-56882912D01*
X26726633Y-56863958D01*
X26760852Y-56867508D01*
G36*
X10555443Y-54050781D02*
G01*
X10566252Y-54068877D01*
X10582747Y-54140514D01*
X10570486Y-54216685D01*
X10560917Y-54233106D01*
X10532386Y-54250167D01*
X10506651Y-54244231D01*
X10473203Y-54209918D01*
X10457791Y-54156776D01*
X10463133Y-54098365D01*
X10491943Y-54048248D01*
X10509154Y-54032013D01*
X10531517Y-54024888D01*
X10555443Y-54050781D01*
G37*
X10555443Y-54050781D02*
X10566252Y-54068877D01*
X10582747Y-54140514D01*
X10570486Y-54216685D01*
X10560917Y-54233106D01*
X10532386Y-54250167D01*
X10506651Y-54244231D01*
X10473203Y-54209918D01*
X10457791Y-54156776D01*
X10463133Y-54098365D01*
X10491943Y-54048248D01*
X10509154Y-54032013D01*
X10531517Y-54024888D01*
X10555443Y-54050781D01*
G36*
X14794255Y-54232173D02*
G01*
X14837754Y-54264427D01*
X14904036Y-54330973D01*
X14992547Y-54431199D01*
X15102736Y-54564493D01*
X15234052Y-54730242D01*
X15268816Y-54774629D01*
X15474505Y-55027766D01*
X15666779Y-55246970D01*
X15849224Y-55436180D01*
X16025427Y-55599337D01*
X16040609Y-55612580D01*
X16116586Y-55680461D01*
X16178281Y-55738217D01*
X16219696Y-55780092D01*
X16234833Y-55800329D01*
X16220901Y-55811239D01*
X16177852Y-55799919D01*
X16110357Y-55766645D01*
X16023167Y-55713369D01*
X15951415Y-55660801D01*
X15841593Y-55566870D01*
X15716617Y-55448573D01*
X15581623Y-55311700D01*
X15441746Y-55162045D01*
X15302123Y-55005398D01*
X15167890Y-54847552D01*
X15044182Y-54694298D01*
X14936137Y-54551428D01*
X14848889Y-54424735D01*
X14787575Y-54320009D01*
X14772773Y-54290303D01*
X14756336Y-54249955D01*
X14759841Y-54232666D01*
X14782793Y-54229000D01*
X14794255Y-54232173D01*
G37*
X14794255Y-54232173D02*
X14837754Y-54264427D01*
X14904036Y-54330973D01*
X14992547Y-54431199D01*
X15102736Y-54564493D01*
X15234052Y-54730242D01*
X15268816Y-54774629D01*
X15474505Y-55027766D01*
X15666779Y-55246970D01*
X15849224Y-55436180D01*
X16025427Y-55599337D01*
X16040609Y-55612580D01*
X16116586Y-55680461D01*
X16178281Y-55738217D01*
X16219696Y-55780092D01*
X16234833Y-55800329D01*
X16220901Y-55811239D01*
X16177852Y-55799919D01*
X16110357Y-55766645D01*
X16023167Y-55713369D01*
X15951415Y-55660801D01*
X15841593Y-55566870D01*
X15716617Y-55448573D01*
X15581623Y-55311700D01*
X15441746Y-55162045D01*
X15302123Y-55005398D01*
X15167890Y-54847552D01*
X15044182Y-54694298D01*
X14936137Y-54551428D01*
X14848889Y-54424735D01*
X14787575Y-54320009D01*
X14772773Y-54290303D01*
X14756336Y-54249955D01*
X14759841Y-54232666D01*
X14782793Y-54229000D01*
X14794255Y-54232173D01*
G36*
X26122756Y-55511506D02*
G01*
X26136333Y-55550621D01*
X26118690Y-55595427D01*
X26092053Y-55616229D01*
X26046747Y-55616181D01*
X26005878Y-55578772D01*
X25994921Y-55543627D01*
X26017843Y-55507086D01*
X26045677Y-55488664D01*
X26088892Y-55487661D01*
X26122756Y-55511506D01*
G37*
X26122756Y-55511506D02*
X26136333Y-55550621D01*
X26118690Y-55595427D01*
X26092053Y-55616229D01*
X26046747Y-55616181D01*
X26005878Y-55578772D01*
X25994921Y-55543627D01*
X26017843Y-55507086D01*
X26045677Y-55488664D01*
X26088892Y-55487661D01*
X26122756Y-55511506D01*
G36*
X17039378Y-54949750D02*
G01*
X17062269Y-54970387D01*
X17053771Y-55016087D01*
X17014841Y-55085355D01*
X16946437Y-55176697D01*
X16849519Y-55288618D01*
X16725043Y-55419625D01*
X16666994Y-55477494D01*
X16587138Y-55551549D01*
X16531675Y-55593946D01*
X16499332Y-55605590D01*
X16488833Y-55587384D01*
X16495508Y-55571643D01*
X16521440Y-55526212D01*
X16562377Y-55459975D01*
X16613445Y-55381009D01*
X16639553Y-55342720D01*
X16710137Y-55248594D01*
X16786362Y-55157439D01*
X16862196Y-55075562D01*
X16931604Y-55009269D01*
X16988554Y-54964868D01*
X17027012Y-54948667D01*
X17039378Y-54949750D01*
G37*
X17039378Y-54949750D02*
X17062269Y-54970387D01*
X17053771Y-55016087D01*
X17014841Y-55085355D01*
X16946437Y-55176697D01*
X16849519Y-55288618D01*
X16725043Y-55419625D01*
X16666994Y-55477494D01*
X16587138Y-55551549D01*
X16531675Y-55593946D01*
X16499332Y-55605590D01*
X16488833Y-55587384D01*
X16495508Y-55571643D01*
X16521440Y-55526212D01*
X16562377Y-55459975D01*
X16613445Y-55381009D01*
X16639553Y-55342720D01*
X16710137Y-55248594D01*
X16786362Y-55157439D01*
X16862196Y-55075562D01*
X16931604Y-55009269D01*
X16988554Y-54964868D01*
X17027012Y-54948667D01*
X17039378Y-54949750D01*
G36*
X15463854Y-50936623D02*
G01*
X15513145Y-50966932D01*
X15572475Y-51010739D01*
X15604640Y-51037655D01*
X15686809Y-51120329D01*
X15750238Y-51205107D01*
X15791129Y-51285136D01*
X15805684Y-51353560D01*
X15790105Y-51403525D01*
X15782390Y-51411860D01*
X15730497Y-51436864D01*
X15668069Y-51429040D01*
X15601620Y-51392950D01*
X15537666Y-51333155D01*
X15482721Y-51254218D01*
X15443302Y-51160700D01*
X15422417Y-51079874D01*
X15410626Y-50998066D01*
X15415893Y-50945547D01*
X15438319Y-50927000D01*
X15463854Y-50936623D01*
G37*
X15463854Y-50936623D02*
X15513145Y-50966932D01*
X15572475Y-51010739D01*
X15604640Y-51037655D01*
X15686809Y-51120329D01*
X15750238Y-51205107D01*
X15791129Y-51285136D01*
X15805684Y-51353560D01*
X15790105Y-51403525D01*
X15782390Y-51411860D01*
X15730497Y-51436864D01*
X15668069Y-51429040D01*
X15601620Y-51392950D01*
X15537666Y-51333155D01*
X15482721Y-51254218D01*
X15443302Y-51160700D01*
X15422417Y-51079874D01*
X15410626Y-50998066D01*
X15415893Y-50945547D01*
X15438319Y-50927000D01*
X15463854Y-50936623D01*
G36*
X28617333Y-56906583D02*
G01*
X28606750Y-56917167D01*
X28596167Y-56906583D01*
X28606750Y-56896000D01*
X28617333Y-56906583D01*
G37*
X28617333Y-56906583D02*
X28606750Y-56917167D01*
X28596167Y-56906583D01*
X28606750Y-56896000D01*
X28617333Y-56906583D01*
G36*
X17070917Y-56632611D02*
G01*
X17176352Y-56675514D01*
X17287996Y-56721807D01*
X17372075Y-56758333D01*
X17435370Y-56788357D01*
X17484658Y-56815141D01*
X17526720Y-56841948D01*
X17568333Y-56872040D01*
X17570283Y-56873506D01*
X17642417Y-56927750D01*
X16594667Y-56938633D01*
X16573167Y-56938849D01*
X16431209Y-56940050D01*
X16250392Y-56941270D01*
X16033651Y-56942499D01*
X15783925Y-56943727D01*
X15504150Y-56944946D01*
X15197264Y-56946146D01*
X14866203Y-56947317D01*
X14513904Y-56948450D01*
X14143305Y-56949535D01*
X13757343Y-56950563D01*
X13358954Y-56951524D01*
X12951075Y-56952408D01*
X12536645Y-56953207D01*
X12118599Y-56953910D01*
X11699875Y-56954508D01*
X7852833Y-56959500D01*
X7852833Y-56911079D01*
X7858056Y-56888259D01*
X7892075Y-56832758D01*
X7953375Y-56765359D01*
X7994080Y-56727204D01*
X8075140Y-56661834D01*
X8137364Y-56629808D01*
X8183527Y-56629489D01*
X8214350Y-56658462D01*
X8244593Y-56715417D01*
X8267248Y-56785204D01*
X8276167Y-56852987D01*
X8276167Y-56917167D01*
X8707615Y-56917167D01*
X8783282Y-56917134D01*
X8910238Y-56916670D01*
X9003101Y-56915230D01*
X9067419Y-56912285D01*
X9108735Y-56907303D01*
X9132595Y-56899754D01*
X9144546Y-56889107D01*
X9150133Y-56874833D01*
X9163808Y-56849943D01*
X9207500Y-56832500D01*
X9236434Y-56839053D01*
X9264867Y-56874833D01*
X9270080Y-56888350D01*
X9281202Y-56898647D01*
X9303433Y-56906147D01*
X9341977Y-56911293D01*
X9402038Y-56914525D01*
X9488820Y-56916287D01*
X9607527Y-56917020D01*
X9763363Y-56917167D01*
X10250788Y-56917167D01*
X10237314Y-56774292D01*
X10235905Y-56757705D01*
X10231044Y-56681802D01*
X10225677Y-56574986D01*
X10220178Y-56445869D01*
X10214924Y-56303059D01*
X10210290Y-56155167D01*
X10207310Y-56018877D01*
X10206626Y-55765118D01*
X10212241Y-55524963D01*
X10223789Y-55303167D01*
X10240907Y-55104484D01*
X10263231Y-54933670D01*
X10290398Y-54795479D01*
X10322043Y-54694667D01*
X10326027Y-54685224D01*
X10345691Y-54644877D01*
X10359788Y-54638636D01*
X10376276Y-54661659D01*
X10377270Y-54663896D01*
X10382978Y-54702363D01*
X10386731Y-54777413D01*
X10388664Y-54884067D01*
X10388910Y-55017346D01*
X10387602Y-55172270D01*
X10384874Y-55343861D01*
X10380859Y-55527139D01*
X10375692Y-55717126D01*
X10369505Y-55908842D01*
X10362433Y-56097309D01*
X10354608Y-56277546D01*
X10346165Y-56444575D01*
X10337237Y-56593418D01*
X10327958Y-56719094D01*
X10318461Y-56816625D01*
X10306709Y-56917167D01*
X10899063Y-56917167D01*
X10835121Y-56774292D01*
X10800753Y-56699061D01*
X10767709Y-56636090D01*
X10744532Y-56612520D01*
X10727708Y-56628488D01*
X10713726Y-56684130D01*
X10699071Y-56779583D01*
X10690449Y-56829910D01*
X10679161Y-56860517D01*
X10668096Y-56849377D01*
X10657245Y-56796407D01*
X10646599Y-56701522D01*
X10636150Y-56564639D01*
X10625888Y-56385675D01*
X10615806Y-56164545D01*
X10605893Y-55901167D01*
X10602391Y-55790575D01*
X10596863Y-55490104D01*
X10598887Y-55225950D01*
X10608909Y-54994050D01*
X10627372Y-54790339D01*
X10654721Y-54610751D01*
X10691401Y-54451222D01*
X10737856Y-54307688D01*
X10794530Y-54176083D01*
X10881288Y-54026486D01*
X11009892Y-53873857D01*
X11168797Y-53747212D01*
X11361810Y-53642975D01*
X11414881Y-53620503D01*
X11500458Y-53586008D01*
X11610186Y-53542825D01*
X11738282Y-53493138D01*
X11878963Y-53439132D01*
X12026447Y-53382989D01*
X12174951Y-53326895D01*
X12318692Y-53273032D01*
X12451888Y-53223583D01*
X12568756Y-53180734D01*
X12663513Y-53146668D01*
X12730378Y-53123568D01*
X12763566Y-53113618D01*
X12813723Y-53117117D01*
X12866931Y-53158155D01*
X12910805Y-53240011D01*
X12945551Y-53362968D01*
X12948173Y-53375704D01*
X12970662Y-53537832D01*
X12971109Y-53684582D01*
X12950015Y-53808741D01*
X12907885Y-53903093D01*
X12885150Y-53940729D01*
X12853521Y-54008067D01*
X12821205Y-54095434D01*
X12787535Y-54205566D01*
X12751847Y-54341197D01*
X12713475Y-54505060D01*
X12671753Y-54699890D01*
X12626016Y-54928422D01*
X12575599Y-55193390D01*
X12519836Y-55497527D01*
X12512298Y-55539159D01*
X12471435Y-55761110D01*
X12436253Y-55944648D01*
X12406061Y-56092698D01*
X12380167Y-56208186D01*
X12357879Y-56294035D01*
X12338506Y-56353171D01*
X12321356Y-56388519D01*
X12305739Y-56403004D01*
X12297112Y-56400585D01*
X12281333Y-56367069D01*
X12268011Y-56300640D01*
X12258210Y-56207539D01*
X12252996Y-56094004D01*
X12250685Y-56019024D01*
X12245100Y-55942017D01*
X12236484Y-55905086D01*
X12224354Y-55908613D01*
X12208226Y-55952979D01*
X12187619Y-56038564D01*
X12162049Y-56165750D01*
X12154649Y-56204425D01*
X12127623Y-56341351D01*
X12105892Y-56441973D01*
X12088196Y-56510706D01*
X12073277Y-56551963D01*
X12059874Y-56570158D01*
X12046726Y-56569704D01*
X12043943Y-56567252D01*
X12028573Y-56534470D01*
X12015775Y-56480729D01*
X11994283Y-56410283D01*
X11954540Y-56350694D01*
X11905389Y-56314955D01*
X11854545Y-56308464D01*
X11809726Y-56336618D01*
X11795592Y-56363326D01*
X11793280Y-56407774D01*
X11805177Y-56479493D01*
X11811938Y-56514775D01*
X11816715Y-56584975D01*
X11798700Y-56622562D01*
X11753822Y-56631959D01*
X11678006Y-56617589D01*
X11655512Y-56611736D01*
X11602260Y-56601954D01*
X11568055Y-56607736D01*
X11536780Y-56630560D01*
X11509712Y-56667357D01*
X11493500Y-56739281D01*
X11492795Y-56764164D01*
X11482931Y-56807940D01*
X11459939Y-56814842D01*
X11421907Y-56784528D01*
X11366924Y-56716657D01*
X11343218Y-56685043D01*
X11296762Y-56628869D01*
X11266062Y-56605010D01*
X11246354Y-56610877D01*
X11232874Y-56643885D01*
X11219467Y-56670040D01*
X11191925Y-56670615D01*
X11150342Y-56635195D01*
X11092726Y-56562625D01*
X11070420Y-56533199D01*
X11025532Y-56485701D01*
X10995965Y-56473995D01*
X10983512Y-56499125D01*
X10982719Y-56509948D01*
X10979249Y-56558251D01*
X10973959Y-56632404D01*
X10967637Y-56721380D01*
X10953750Y-56917176D01*
X12491331Y-56917171D01*
X14028911Y-56917167D01*
X14042209Y-56864183D01*
X14050433Y-56843210D01*
X14084197Y-56790597D01*
X14133067Y-56731762D01*
X14187292Y-56676995D01*
X14237120Y-56636589D01*
X14272801Y-56620833D01*
X14287022Y-56623039D01*
X14327368Y-56655553D01*
X14360086Y-56722131D01*
X14381753Y-56816625D01*
X14395927Y-56917167D01*
X14585130Y-56917167D01*
X15765446Y-56917167D01*
X15985702Y-56917167D01*
X15948717Y-56858958D01*
X15945958Y-56854916D01*
X16065500Y-56854916D01*
X16065624Y-56867539D01*
X16071718Y-56901049D01*
X16095860Y-56914622D01*
X16150167Y-56917167D01*
X16169116Y-56916729D01*
X16216046Y-56910737D01*
X16234833Y-56899960D01*
X16230026Y-56887681D01*
X16467667Y-56887681D01*
X16475032Y-56899960D01*
X16479207Y-56906922D01*
X16520583Y-56917167D01*
X16524238Y-56917086D01*
X16562729Y-56902660D01*
X16574983Y-56873506D01*
X16554244Y-56844264D01*
X16522790Y-56839289D01*
X16485108Y-56856316D01*
X16467667Y-56887681D01*
X16230026Y-56887681D01*
X16227756Y-56881882D01*
X16197502Y-56846299D01*
X16155399Y-56809922D01*
X16114632Y-56783685D01*
X16088387Y-56778520D01*
X16072577Y-56805634D01*
X16065500Y-56854916D01*
X15945958Y-56854916D01*
X15916970Y-56812450D01*
X15870764Y-56756421D01*
X15832815Y-56723786D01*
X15809726Y-56721095D01*
X15805655Y-56727677D01*
X15792376Y-56768001D01*
X15780068Y-56827208D01*
X15765446Y-56917167D01*
X14585130Y-56917167D01*
X14626493Y-56916946D01*
X14702308Y-56915203D01*
X14754748Y-56912098D01*
X14774333Y-56908087D01*
X14772452Y-56896141D01*
X14763897Y-56847714D01*
X14749391Y-56767570D01*
X14729990Y-56661505D01*
X14706752Y-56535315D01*
X14680733Y-56394796D01*
X14677282Y-56376201D01*
X14649163Y-56223742D01*
X14905153Y-56223742D01*
X14906155Y-56229604D01*
X14928262Y-56270144D01*
X14962282Y-56280418D01*
X14993492Y-56261669D01*
X15007167Y-56215139D01*
X14995796Y-56186411D01*
X14952778Y-56176333D01*
X14938363Y-56176750D01*
X14908039Y-56188320D01*
X14905153Y-56223742D01*
X14649163Y-56223742D01*
X14641059Y-56179802D01*
X14611870Y-56018016D01*
X14588810Y-55884435D01*
X14570974Y-55772651D01*
X14559315Y-55689500D01*
X14784917Y-55689500D01*
X14789853Y-55716307D01*
X14814412Y-55745465D01*
X14846659Y-55749508D01*
X14871912Y-55722814D01*
X14877215Y-55676788D01*
X14858541Y-55639935D01*
X14822023Y-55630017D01*
X14798597Y-55643669D01*
X14784917Y-55689500D01*
X14559315Y-55689500D01*
X14557458Y-55676257D01*
X14547358Y-55588845D01*
X14539770Y-55504007D01*
X14533787Y-55415336D01*
X14528507Y-55316424D01*
X14525467Y-55229179D01*
X14525861Y-55073387D01*
X14533116Y-54925409D01*
X14546496Y-54793830D01*
X14565266Y-54687234D01*
X14588689Y-54614206D01*
X14597425Y-54598224D01*
X14638832Y-54559146D01*
X14685549Y-54554293D01*
X14729274Y-54579623D01*
X14761706Y-54631095D01*
X14774540Y-54704668D01*
X14780121Y-54750542D01*
X14813611Y-54847359D01*
X14874129Y-54962242D01*
X14957974Y-55089760D01*
X15061443Y-55224483D01*
X15180835Y-55360979D01*
X15312448Y-55493816D01*
X15435810Y-55607378D01*
X15520197Y-55676788D01*
X15815132Y-55919380D01*
X16214751Y-56194681D01*
X16250768Y-56215139D01*
X16633676Y-56432638D01*
X17070917Y-56632611D01*
G37*
X17070917Y-56632611D02*
X17176352Y-56675514D01*
X17287996Y-56721807D01*
X17372075Y-56758333D01*
X17435370Y-56788357D01*
X17484658Y-56815141D01*
X17526720Y-56841948D01*
X17568333Y-56872040D01*
X17570283Y-56873506D01*
X17642417Y-56927750D01*
X16594667Y-56938633D01*
X16573167Y-56938849D01*
X16431209Y-56940050D01*
X16250392Y-56941270D01*
X16033651Y-56942499D01*
X15783925Y-56943727D01*
X15504150Y-56944946D01*
X15197264Y-56946146D01*
X14866203Y-56947317D01*
X14513904Y-56948450D01*
X14143305Y-56949535D01*
X13757343Y-56950563D01*
X13358954Y-56951524D01*
X12951075Y-56952408D01*
X12536645Y-56953207D01*
X12118599Y-56953910D01*
X11699875Y-56954508D01*
X7852833Y-56959500D01*
X7852833Y-56911079D01*
X7858056Y-56888259D01*
X7892075Y-56832758D01*
X7953375Y-56765359D01*
X7994080Y-56727204D01*
X8075140Y-56661834D01*
X8137364Y-56629808D01*
X8183527Y-56629489D01*
X8214350Y-56658462D01*
X8244593Y-56715417D01*
X8267248Y-56785204D01*
X8276167Y-56852987D01*
X8276167Y-56917167D01*
X8707615Y-56917167D01*
X8783282Y-56917134D01*
X8910238Y-56916670D01*
X9003101Y-56915230D01*
X9067419Y-56912285D01*
X9108735Y-56907303D01*
X9132595Y-56899754D01*
X9144546Y-56889107D01*
X9150133Y-56874833D01*
X9163808Y-56849943D01*
X9207500Y-56832500D01*
X9236434Y-56839053D01*
X9264867Y-56874833D01*
X9270080Y-56888350D01*
X9281202Y-56898647D01*
X9303433Y-56906147D01*
X9341977Y-56911293D01*
X9402038Y-56914525D01*
X9488820Y-56916287D01*
X9607527Y-56917020D01*
X9763363Y-56917167D01*
X10250788Y-56917167D01*
X10237314Y-56774292D01*
X10235905Y-56757705D01*
X10231044Y-56681802D01*
X10225677Y-56574986D01*
X10220178Y-56445869D01*
X10214924Y-56303059D01*
X10210290Y-56155167D01*
X10207310Y-56018877D01*
X10206626Y-55765118D01*
X10212241Y-55524963D01*
X10223789Y-55303167D01*
X10240907Y-55104484D01*
X10263231Y-54933670D01*
X10290398Y-54795479D01*
X10322043Y-54694667D01*
X10326027Y-54685224D01*
X10345691Y-54644877D01*
X10359788Y-54638636D01*
X10376276Y-54661659D01*
X10377270Y-54663896D01*
X10382978Y-54702363D01*
X10386731Y-54777413D01*
X10388664Y-54884067D01*
X10388910Y-55017346D01*
X10387602Y-55172270D01*
X10384874Y-55343861D01*
X10380859Y-55527139D01*
X10375692Y-55717126D01*
X10369505Y-55908842D01*
X10362433Y-56097309D01*
X10354608Y-56277546D01*
X10346165Y-56444575D01*
X10337237Y-56593418D01*
X10327958Y-56719094D01*
X10318461Y-56816625D01*
X10306709Y-56917167D01*
X10899063Y-56917167D01*
X10835121Y-56774292D01*
X10800753Y-56699061D01*
X10767709Y-56636090D01*
X10744532Y-56612520D01*
X10727708Y-56628488D01*
X10713726Y-56684130D01*
X10699071Y-56779583D01*
X10690449Y-56829910D01*
X10679161Y-56860517D01*
X10668096Y-56849377D01*
X10657245Y-56796407D01*
X10646599Y-56701522D01*
X10636150Y-56564639D01*
X10625888Y-56385675D01*
X10615806Y-56164545D01*
X10605893Y-55901167D01*
X10602391Y-55790575D01*
X10596863Y-55490104D01*
X10598887Y-55225950D01*
X10608909Y-54994050D01*
X10627372Y-54790339D01*
X10654721Y-54610751D01*
X10691401Y-54451222D01*
X10737856Y-54307688D01*
X10794530Y-54176083D01*
X10881288Y-54026486D01*
X11009892Y-53873857D01*
X11168797Y-53747212D01*
X11361810Y-53642975D01*
X11414881Y-53620503D01*
X11500458Y-53586008D01*
X11610186Y-53542825D01*
X11738282Y-53493138D01*
X11878963Y-53439132D01*
X12026447Y-53382989D01*
X12174951Y-53326895D01*
X12318692Y-53273032D01*
X12451888Y-53223583D01*
X12568756Y-53180734D01*
X12663513Y-53146668D01*
X12730378Y-53123568D01*
X12763566Y-53113618D01*
X12813723Y-53117117D01*
X12866931Y-53158155D01*
X12910805Y-53240011D01*
X12945551Y-53362968D01*
X12948173Y-53375704D01*
X12970662Y-53537832D01*
X12971109Y-53684582D01*
X12950015Y-53808741D01*
X12907885Y-53903093D01*
X12885150Y-53940729D01*
X12853521Y-54008067D01*
X12821205Y-54095434D01*
X12787535Y-54205566D01*
X12751847Y-54341197D01*
X12713475Y-54505060D01*
X12671753Y-54699890D01*
X12626016Y-54928422D01*
X12575599Y-55193390D01*
X12519836Y-55497527D01*
X12512298Y-55539159D01*
X12471435Y-55761110D01*
X12436253Y-55944648D01*
X12406061Y-56092698D01*
X12380167Y-56208186D01*
X12357879Y-56294035D01*
X12338506Y-56353171D01*
X12321356Y-56388519D01*
X12305739Y-56403004D01*
X12297112Y-56400585D01*
X12281333Y-56367069D01*
X12268011Y-56300640D01*
X12258210Y-56207539D01*
X12252996Y-56094004D01*
X12250685Y-56019024D01*
X12245100Y-55942017D01*
X12236484Y-55905086D01*
X12224354Y-55908613D01*
X12208226Y-55952979D01*
X12187619Y-56038564D01*
X12162049Y-56165750D01*
X12154649Y-56204425D01*
X12127623Y-56341351D01*
X12105892Y-56441973D01*
X12088196Y-56510706D01*
X12073277Y-56551963D01*
X12059874Y-56570158D01*
X12046726Y-56569704D01*
X12043943Y-56567252D01*
X12028573Y-56534470D01*
X12015775Y-56480729D01*
X11994283Y-56410283D01*
X11954540Y-56350694D01*
X11905389Y-56314955D01*
X11854545Y-56308464D01*
X11809726Y-56336618D01*
X11795592Y-56363326D01*
X11793280Y-56407774D01*
X11805177Y-56479493D01*
X11811938Y-56514775D01*
X11816715Y-56584975D01*
X11798700Y-56622562D01*
X11753822Y-56631959D01*
X11678006Y-56617589D01*
X11655512Y-56611736D01*
X11602260Y-56601954D01*
X11568055Y-56607736D01*
X11536780Y-56630560D01*
X11509712Y-56667357D01*
X11493500Y-56739281D01*
X11492795Y-56764164D01*
X11482931Y-56807940D01*
X11459939Y-56814842D01*
X11421907Y-56784528D01*
X11366924Y-56716657D01*
X11343218Y-56685043D01*
X11296762Y-56628869D01*
X11266062Y-56605010D01*
X11246354Y-56610877D01*
X11232874Y-56643885D01*
X11219467Y-56670040D01*
X11191925Y-56670615D01*
X11150342Y-56635195D01*
X11092726Y-56562625D01*
X11070420Y-56533199D01*
X11025532Y-56485701D01*
X10995965Y-56473995D01*
X10983512Y-56499125D01*
X10982719Y-56509948D01*
X10979249Y-56558251D01*
X10973959Y-56632404D01*
X10967637Y-56721380D01*
X10953750Y-56917176D01*
X12491331Y-56917171D01*
X14028911Y-56917167D01*
X14042209Y-56864183D01*
X14050433Y-56843210D01*
X14084197Y-56790597D01*
X14133067Y-56731762D01*
X14187292Y-56676995D01*
X14237120Y-56636589D01*
X14272801Y-56620833D01*
X14287022Y-56623039D01*
X14327368Y-56655553D01*
X14360086Y-56722131D01*
X14381753Y-56816625D01*
X14395927Y-56917167D01*
X14585130Y-56917167D01*
X15765446Y-56917167D01*
X15985702Y-56917167D01*
X15948717Y-56858958D01*
X15945958Y-56854916D01*
X16065500Y-56854916D01*
X16065624Y-56867539D01*
X16071718Y-56901049D01*
X16095860Y-56914622D01*
X16150167Y-56917167D01*
X16169116Y-56916729D01*
X16216046Y-56910737D01*
X16234833Y-56899960D01*
X16230026Y-56887681D01*
X16467667Y-56887681D01*
X16475032Y-56899960D01*
X16479207Y-56906922D01*
X16520583Y-56917167D01*
X16524238Y-56917086D01*
X16562729Y-56902660D01*
X16574983Y-56873506D01*
X16554244Y-56844264D01*
X16522790Y-56839289D01*
X16485108Y-56856316D01*
X16467667Y-56887681D01*
X16230026Y-56887681D01*
X16227756Y-56881882D01*
X16197502Y-56846299D01*
X16155399Y-56809922D01*
X16114632Y-56783685D01*
X16088387Y-56778520D01*
X16072577Y-56805634D01*
X16065500Y-56854916D01*
X15945958Y-56854916D01*
X15916970Y-56812450D01*
X15870764Y-56756421D01*
X15832815Y-56723786D01*
X15809726Y-56721095D01*
X15805655Y-56727677D01*
X15792376Y-56768001D01*
X15780068Y-56827208D01*
X15765446Y-56917167D01*
X14585130Y-56917167D01*
X14626493Y-56916946D01*
X14702308Y-56915203D01*
X14754748Y-56912098D01*
X14774333Y-56908087D01*
X14772452Y-56896141D01*
X14763897Y-56847714D01*
X14749391Y-56767570D01*
X14729990Y-56661505D01*
X14706752Y-56535315D01*
X14680733Y-56394796D01*
X14677282Y-56376201D01*
X14649163Y-56223742D01*
X14905153Y-56223742D01*
X14906155Y-56229604D01*
X14928262Y-56270144D01*
X14962282Y-56280418D01*
X14993492Y-56261669D01*
X15007167Y-56215139D01*
X14995796Y-56186411D01*
X14952778Y-56176333D01*
X14938363Y-56176750D01*
X14908039Y-56188320D01*
X14905153Y-56223742D01*
X14649163Y-56223742D01*
X14641059Y-56179802D01*
X14611870Y-56018016D01*
X14588810Y-55884435D01*
X14570974Y-55772651D01*
X14559315Y-55689500D01*
X14784917Y-55689500D01*
X14789853Y-55716307D01*
X14814412Y-55745465D01*
X14846659Y-55749508D01*
X14871912Y-55722814D01*
X14877215Y-55676788D01*
X14858541Y-55639935D01*
X14822023Y-55630017D01*
X14798597Y-55643669D01*
X14784917Y-55689500D01*
X14559315Y-55689500D01*
X14557458Y-55676257D01*
X14547358Y-55588845D01*
X14539770Y-55504007D01*
X14533787Y-55415336D01*
X14528507Y-55316424D01*
X14525467Y-55229179D01*
X14525861Y-55073387D01*
X14533116Y-54925409D01*
X14546496Y-54793830D01*
X14565266Y-54687234D01*
X14588689Y-54614206D01*
X14597425Y-54598224D01*
X14638832Y-54559146D01*
X14685549Y-54554293D01*
X14729274Y-54579623D01*
X14761706Y-54631095D01*
X14774540Y-54704668D01*
X14780121Y-54750542D01*
X14813611Y-54847359D01*
X14874129Y-54962242D01*
X14957974Y-55089760D01*
X15061443Y-55224483D01*
X15180835Y-55360979D01*
X15312448Y-55493816D01*
X15435810Y-55607378D01*
X15520197Y-55676788D01*
X15815132Y-55919380D01*
X16214751Y-56194681D01*
X16250768Y-56215139D01*
X16633676Y-56432638D01*
X17070917Y-56632611D01*
G36*
X15838732Y-53084034D02*
G01*
X15817989Y-53129892D01*
X15802702Y-53151944D01*
X15755330Y-53208971D01*
X15686736Y-53284628D01*
X15603200Y-53372563D01*
X15511002Y-53466423D01*
X15416422Y-53559857D01*
X15325738Y-53646512D01*
X15245230Y-53720035D01*
X15181179Y-53774075D01*
X15169078Y-53783517D01*
X15092452Y-53839483D01*
X15044997Y-53866283D01*
X15026242Y-53864800D01*
X15035716Y-53835916D01*
X15072948Y-53780515D01*
X15137467Y-53699479D01*
X15228802Y-53593693D01*
X15346483Y-53464039D01*
X15431512Y-53375352D01*
X15523936Y-53285802D01*
X15610881Y-53208022D01*
X15688785Y-53144536D01*
X15754085Y-53097870D01*
X15803217Y-53070547D01*
X15832621Y-53065094D01*
X15838732Y-53084034D01*
G37*
X15838732Y-53084034D02*
X15817989Y-53129892D01*
X15802702Y-53151944D01*
X15755330Y-53208971D01*
X15686736Y-53284628D01*
X15603200Y-53372563D01*
X15511002Y-53466423D01*
X15416422Y-53559857D01*
X15325738Y-53646512D01*
X15245230Y-53720035D01*
X15181179Y-53774075D01*
X15169078Y-53783517D01*
X15092452Y-53839483D01*
X15044997Y-53866283D01*
X15026242Y-53864800D01*
X15035716Y-53835916D01*
X15072948Y-53780515D01*
X15137467Y-53699479D01*
X15228802Y-53593693D01*
X15346483Y-53464039D01*
X15431512Y-53375352D01*
X15523936Y-53285802D01*
X15610881Y-53208022D01*
X15688785Y-53144536D01*
X15754085Y-53097870D01*
X15803217Y-53070547D01*
X15832621Y-53065094D01*
X15838732Y-53084034D01*
G36*
X26737621Y-55118410D02*
G01*
X26750437Y-55143284D01*
X26753972Y-55202157D01*
X26748583Y-55288712D01*
X26734624Y-55396630D01*
X26712450Y-55519594D01*
X26708898Y-55536112D01*
X26691529Y-55608981D01*
X26665213Y-55713100D01*
X26631863Y-55841404D01*
X26593391Y-55986829D01*
X26551710Y-56142309D01*
X26508732Y-56300779D01*
X26466369Y-56455174D01*
X26426534Y-56598430D01*
X26391139Y-56723481D01*
X26362097Y-56823262D01*
X26341319Y-56890708D01*
X26320630Y-56904348D01*
X26270120Y-56914155D01*
X26202046Y-56918790D01*
X26128335Y-56918357D01*
X26060916Y-56912959D01*
X26011717Y-56902699D01*
X25992667Y-56887681D01*
X25979746Y-56860453D01*
X25943735Y-56840524D01*
X25906090Y-56844264D01*
X25898499Y-56851439D01*
X25886833Y-56886666D01*
X25885002Y-56894336D01*
X25868297Y-56905609D01*
X25828789Y-56912601D01*
X25759979Y-56916168D01*
X25655368Y-56917167D01*
X25423902Y-56917167D01*
X25509346Y-56731958D01*
X25545093Y-56654791D01*
X25646198Y-56440775D01*
X25732804Y-56264659D01*
X25805570Y-56125275D01*
X25865154Y-56021454D01*
X25912215Y-55952028D01*
X25947410Y-55915828D01*
X25971397Y-55911686D01*
X25974546Y-55914457D01*
X25990803Y-55948123D01*
X26004213Y-56002451D01*
X26005627Y-56010759D01*
X26030958Y-56123331D01*
X26063806Y-56203332D01*
X26107809Y-56259803D01*
X26152317Y-56294434D01*
X26190133Y-56302338D01*
X26220231Y-56276621D01*
X26245800Y-56214392D01*
X26270028Y-56112761D01*
X26295972Y-56007733D01*
X26334474Y-55885585D01*
X26382150Y-55755132D01*
X26436172Y-55622427D01*
X26493708Y-55493525D01*
X26551927Y-55374483D01*
X26608001Y-55271354D01*
X26659097Y-55190194D01*
X26702386Y-55137058D01*
X26735036Y-55118000D01*
X26737621Y-55118410D01*
G37*
X26737621Y-55118410D02*
X26750437Y-55143284D01*
X26753972Y-55202157D01*
X26748583Y-55288712D01*
X26734624Y-55396630D01*
X26712450Y-55519594D01*
X26708898Y-55536112D01*
X26691529Y-55608981D01*
X26665213Y-55713100D01*
X26631863Y-55841404D01*
X26593391Y-55986829D01*
X26551710Y-56142309D01*
X26508732Y-56300779D01*
X26466369Y-56455174D01*
X26426534Y-56598430D01*
X26391139Y-56723481D01*
X26362097Y-56823262D01*
X26341319Y-56890708D01*
X26320630Y-56904348D01*
X26270120Y-56914155D01*
X26202046Y-56918790D01*
X26128335Y-56918357D01*
X26060916Y-56912959D01*
X26011717Y-56902699D01*
X25992667Y-56887681D01*
X25979746Y-56860453D01*
X25943735Y-56840524D01*
X25906090Y-56844264D01*
X25898499Y-56851439D01*
X25886833Y-56886666D01*
X25885002Y-56894336D01*
X25868297Y-56905609D01*
X25828789Y-56912601D01*
X25759979Y-56916168D01*
X25655368Y-56917167D01*
X25423902Y-56917167D01*
X25509346Y-56731958D01*
X25545093Y-56654791D01*
X25646198Y-56440775D01*
X25732804Y-56264659D01*
X25805570Y-56125275D01*
X25865154Y-56021454D01*
X25912215Y-55952028D01*
X25947410Y-55915828D01*
X25971397Y-55911686D01*
X25974546Y-55914457D01*
X25990803Y-55948123D01*
X26004213Y-56002451D01*
X26005627Y-56010759D01*
X26030958Y-56123331D01*
X26063806Y-56203332D01*
X26107809Y-56259803D01*
X26152317Y-56294434D01*
X26190133Y-56302338D01*
X26220231Y-56276621D01*
X26245800Y-56214392D01*
X26270028Y-56112761D01*
X26295972Y-56007733D01*
X26334474Y-55885585D01*
X26382150Y-55755132D01*
X26436172Y-55622427D01*
X26493708Y-55493525D01*
X26551927Y-55374483D01*
X26608001Y-55271354D01*
X26659097Y-55190194D01*
X26702386Y-55137058D01*
X26735036Y-55118000D01*
X26737621Y-55118410D01*
G36*
X22700731Y-55148589D02*
G01*
X22728370Y-55171528D01*
X22776531Y-55218697D01*
X22839973Y-55284848D01*
X22913453Y-55364731D01*
X22937632Y-55391600D01*
X23082663Y-55557811D01*
X23197427Y-55699651D01*
X23283679Y-55819744D01*
X23343174Y-55920715D01*
X23377666Y-56005190D01*
X23388912Y-56075792D01*
X23388080Y-56105531D01*
X23381390Y-56141103D01*
X23366396Y-56154588D01*
X23341179Y-56143952D01*
X23303820Y-56107160D01*
X23252401Y-56042178D01*
X23185002Y-55946972D01*
X23099704Y-55819507D01*
X22994590Y-55657750D01*
X22946619Y-55583089D01*
X22857641Y-55443191D01*
X22789860Y-55334117D01*
X22741563Y-55252939D01*
X22711039Y-55196726D01*
X22696577Y-55162550D01*
X22696464Y-55147480D01*
X22700731Y-55148589D01*
G37*
X22700731Y-55148589D02*
X22728370Y-55171528D01*
X22776531Y-55218697D01*
X22839973Y-55284848D01*
X22913453Y-55364731D01*
X22937632Y-55391600D01*
X23082663Y-55557811D01*
X23197427Y-55699651D01*
X23283679Y-55819744D01*
X23343174Y-55920715D01*
X23377666Y-56005190D01*
X23388912Y-56075792D01*
X23388080Y-56105531D01*
X23381390Y-56141103D01*
X23366396Y-56154588D01*
X23341179Y-56143952D01*
X23303820Y-56107160D01*
X23252401Y-56042178D01*
X23185002Y-55946972D01*
X23099704Y-55819507D01*
X22994590Y-55657750D01*
X22946619Y-55583089D01*
X22857641Y-55443191D01*
X22789860Y-55334117D01*
X22741563Y-55252939D01*
X22711039Y-55196726D01*
X22696577Y-55162550D01*
X22696464Y-55147480D01*
X22700731Y-55148589D01*
G36*
X13402125Y-52697697D02*
G01*
X13433850Y-52733843D01*
X13433383Y-52764178D01*
X13393208Y-52789007D01*
X13345511Y-52805869D01*
X13310482Y-52806207D01*
X13262295Y-52790190D01*
X13221455Y-52768323D01*
X13211440Y-52737664D01*
X13241262Y-52695928D01*
X13278616Y-52671451D01*
X13341639Y-52666459D01*
X13402125Y-52697697D01*
G37*
X13402125Y-52697697D02*
X13433850Y-52733843D01*
X13433383Y-52764178D01*
X13393208Y-52789007D01*
X13345511Y-52805869D01*
X13310482Y-52806207D01*
X13262295Y-52790190D01*
X13221455Y-52768323D01*
X13211440Y-52737664D01*
X13241262Y-52695928D01*
X13278616Y-52671451D01*
X13341639Y-52666459D01*
X13402125Y-52697697D01*
G36*
X13469677Y-52948456D02*
G01*
X13474862Y-52950975D01*
X13525142Y-52985466D01*
X13559858Y-53035644D01*
X13583272Y-53110363D01*
X13599643Y-53218472D01*
X13609323Y-53283994D01*
X13629604Y-53385638D01*
X13653599Y-53481425D01*
X13662192Y-53512281D01*
X13678233Y-53582549D01*
X13680135Y-53626187D01*
X13668749Y-53652842D01*
X13658660Y-53661358D01*
X13608191Y-53673650D01*
X13535581Y-53668088D01*
X13452143Y-53646294D01*
X13369193Y-53609889D01*
X13332018Y-53585676D01*
X13257155Y-53504717D01*
X13207768Y-53400821D01*
X13186056Y-53283228D01*
X13194219Y-53161180D01*
X13234458Y-53043917D01*
X13262693Y-52996446D01*
X13320476Y-52940821D01*
X13388439Y-52925243D01*
X13469677Y-52948456D01*
G37*
X13469677Y-52948456D02*
X13474862Y-52950975D01*
X13525142Y-52985466D01*
X13559858Y-53035644D01*
X13583272Y-53110363D01*
X13599643Y-53218472D01*
X13609323Y-53283994D01*
X13629604Y-53385638D01*
X13653599Y-53481425D01*
X13662192Y-53512281D01*
X13678233Y-53582549D01*
X13680135Y-53626187D01*
X13668749Y-53652842D01*
X13658660Y-53661358D01*
X13608191Y-53673650D01*
X13535581Y-53668088D01*
X13452143Y-53646294D01*
X13369193Y-53609889D01*
X13332018Y-53585676D01*
X13257155Y-53504717D01*
X13207768Y-53400821D01*
X13186056Y-53283228D01*
X13194219Y-53161180D01*
X13234458Y-53043917D01*
X13262693Y-52996446D01*
X13320476Y-52940821D01*
X13388439Y-52925243D01*
X13469677Y-52948456D01*
G36*
X26886238Y-54823537D02*
G01*
X26913773Y-54854968D01*
X26914584Y-54902654D01*
X26885993Y-54939544D01*
X26842007Y-54946327D01*
X26799227Y-54919599D01*
X26788940Y-54900865D01*
X26787688Y-54857736D01*
X26806717Y-54829164D01*
X26845910Y-54813292D01*
X26886238Y-54823537D01*
G37*
X26886238Y-54823537D02*
X26913773Y-54854968D01*
X26914584Y-54902654D01*
X26885993Y-54939544D01*
X26842007Y-54946327D01*
X26799227Y-54919599D01*
X26788940Y-54900865D01*
X26787688Y-54857736D01*
X26806717Y-54829164D01*
X26845910Y-54813292D01*
X26886238Y-54823537D01*
G36*
X24885368Y-55823542D02*
G01*
X24870037Y-55877398D01*
X24844029Y-55958837D01*
X24809506Y-56061745D01*
X24768632Y-56180005D01*
X24723567Y-56307504D01*
X24676474Y-56438125D01*
X24629515Y-56565755D01*
X24584852Y-56684278D01*
X24544648Y-56787578D01*
X24511064Y-56869542D01*
X24490741Y-56917167D01*
X23924079Y-56917061D01*
X23357417Y-56916956D01*
X23420917Y-56864777D01*
X23422351Y-56863607D01*
X23487486Y-56819287D01*
X23582221Y-56765983D01*
X23696645Y-56708933D01*
X23820849Y-56653376D01*
X23836960Y-56646179D01*
X23917403Y-56600671D01*
X24015056Y-56531190D01*
X24132484Y-56435674D01*
X24272249Y-56312064D01*
X24436917Y-56158300D01*
X24531798Y-56068856D01*
X24650550Y-55960747D01*
X24743758Y-55881559D01*
X24813210Y-55829885D01*
X24860696Y-55804316D01*
X24888005Y-55803447D01*
X24885368Y-55823542D01*
G37*
X24885368Y-55823542D02*
X24870037Y-55877398D01*
X24844029Y-55958837D01*
X24809506Y-56061745D01*
X24768632Y-56180005D01*
X24723567Y-56307504D01*
X24676474Y-56438125D01*
X24629515Y-56565755D01*
X24584852Y-56684278D01*
X24544648Y-56787578D01*
X24511064Y-56869542D01*
X24490741Y-56917167D01*
X23924079Y-56917061D01*
X23357417Y-56916956D01*
X23420917Y-56864777D01*
X23422351Y-56863607D01*
X23487486Y-56819287D01*
X23582221Y-56765983D01*
X23696645Y-56708933D01*
X23820849Y-56653376D01*
X23836960Y-56646179D01*
X23917403Y-56600671D01*
X24015056Y-56531190D01*
X24132484Y-56435674D01*
X24272249Y-56312064D01*
X24436917Y-56158300D01*
X24531798Y-56068856D01*
X24650550Y-55960747D01*
X24743758Y-55881559D01*
X24813210Y-55829885D01*
X24860696Y-55804316D01*
X24888005Y-55803447D01*
X24885368Y-55823542D01*
G36*
X14670245Y-50588222D02*
G01*
X14781041Y-50640379D01*
X14864313Y-50718081D01*
X14884162Y-50750206D01*
X14894046Y-50807870D01*
X14863446Y-50854190D01*
X14792870Y-50887955D01*
X14759138Y-50896109D01*
X14708518Y-50901331D01*
X14642468Y-50900148D01*
X14552226Y-50892310D01*
X14429024Y-50877567D01*
X14375763Y-50870759D01*
X14251215Y-50855372D01*
X14161398Y-50845998D01*
X14100966Y-50842957D01*
X14064571Y-50846570D01*
X14046869Y-50857158D01*
X14042511Y-50875041D01*
X14046153Y-50900542D01*
X14046683Y-50963363D01*
X14016268Y-51051353D01*
X13955977Y-51138666D01*
X13871636Y-51217336D01*
X13769071Y-51279397D01*
X13756016Y-51285448D01*
X13686562Y-51314951D01*
X13638284Y-51326132D01*
X13597017Y-51320213D01*
X13548597Y-51298415D01*
X13494647Y-51258014D01*
X13455890Y-51187309D01*
X13451611Y-51099342D01*
X13481831Y-50998246D01*
X13546570Y-50888159D01*
X13562465Y-50867325D01*
X13618750Y-50805461D01*
X13680642Y-50750635D01*
X13741077Y-50707469D01*
X13792992Y-50680587D01*
X13829321Y-50674612D01*
X13843000Y-50694167D01*
X13858389Y-50712609D01*
X13905124Y-50711977D01*
X13978049Y-50691472D01*
X14071942Y-50652053D01*
X14084724Y-50646116D01*
X14239164Y-50590556D01*
X14392661Y-50562757D01*
X14538570Y-50562163D01*
X14670245Y-50588222D01*
G37*
X14670245Y-50588222D02*
X14781041Y-50640379D01*
X14864313Y-50718081D01*
X14884162Y-50750206D01*
X14894046Y-50807870D01*
X14863446Y-50854190D01*
X14792870Y-50887955D01*
X14759138Y-50896109D01*
X14708518Y-50901331D01*
X14642468Y-50900148D01*
X14552226Y-50892310D01*
X14429024Y-50877567D01*
X14375763Y-50870759D01*
X14251215Y-50855372D01*
X14161398Y-50845998D01*
X14100966Y-50842957D01*
X14064571Y-50846570D01*
X14046869Y-50857158D01*
X14042511Y-50875041D01*
X14046153Y-50900542D01*
X14046683Y-50963363D01*
X14016268Y-51051353D01*
X13955977Y-51138666D01*
X13871636Y-51217336D01*
X13769071Y-51279397D01*
X13756016Y-51285448D01*
X13686562Y-51314951D01*
X13638284Y-51326132D01*
X13597017Y-51320213D01*
X13548597Y-51298415D01*
X13494647Y-51258014D01*
X13455890Y-51187309D01*
X13451611Y-51099342D01*
X13481831Y-50998246D01*
X13546570Y-50888159D01*
X13562465Y-50867325D01*
X13618750Y-50805461D01*
X13680642Y-50750635D01*
X13741077Y-50707469D01*
X13792992Y-50680587D01*
X13829321Y-50674612D01*
X13843000Y-50694167D01*
X13858389Y-50712609D01*
X13905124Y-50711977D01*
X13978049Y-50691472D01*
X14071942Y-50652053D01*
X14084724Y-50646116D01*
X14239164Y-50590556D01*
X14392661Y-50562757D01*
X14538570Y-50562163D01*
X14670245Y-50588222D01*
G36*
X27384376Y-54889657D02*
G01*
X27383812Y-54919407D01*
X27372223Y-54991856D01*
X27349520Y-55094489D01*
X27317430Y-55221577D01*
X27277684Y-55367396D01*
X27232012Y-55526219D01*
X27182142Y-55692318D01*
X27129805Y-55859968D01*
X27076731Y-56023442D01*
X27024648Y-56177014D01*
X26975286Y-56314956D01*
X26930376Y-56431543D01*
X26891646Y-56521047D01*
X26865534Y-56572808D01*
X26832477Y-56624531D01*
X26810897Y-56638677D01*
X26802274Y-56614697D01*
X26808091Y-56552042D01*
X26828940Y-56447703D01*
X26863700Y-56305285D01*
X26908815Y-56139106D01*
X26961728Y-55957276D01*
X27019883Y-55767904D01*
X27080725Y-55579099D01*
X27141698Y-55398971D01*
X27200246Y-55235627D01*
X27253814Y-55097178D01*
X27299846Y-54991733D01*
X27316755Y-54956797D01*
X27348207Y-54895433D01*
X27367563Y-54866684D01*
X27378420Y-54866206D01*
X27384376Y-54889657D01*
G37*
X27384376Y-54889657D02*
X27383812Y-54919407D01*
X27372223Y-54991856D01*
X27349520Y-55094489D01*
X27317430Y-55221577D01*
X27277684Y-55367396D01*
X27232012Y-55526219D01*
X27182142Y-55692318D01*
X27129805Y-55859968D01*
X27076731Y-56023442D01*
X27024648Y-56177014D01*
X26975286Y-56314956D01*
X26930376Y-56431543D01*
X26891646Y-56521047D01*
X26865534Y-56572808D01*
X26832477Y-56624531D01*
X26810897Y-56638677D01*
X26802274Y-56614697D01*
X26808091Y-56552042D01*
X26828940Y-56447703D01*
X26863700Y-56305285D01*
X26908815Y-56139106D01*
X26961728Y-55957276D01*
X27019883Y-55767904D01*
X27080725Y-55579099D01*
X27141698Y-55398971D01*
X27200246Y-55235627D01*
X27253814Y-55097178D01*
X27299846Y-54991733D01*
X27316755Y-54956797D01*
X27348207Y-54895433D01*
X27367563Y-54866684D01*
X27378420Y-54866206D01*
X27384376Y-54889657D01*
G36*
X16805530Y-54399559D02*
G01*
X16840455Y-54425960D01*
X16856281Y-54478404D01*
X16848881Y-54545752D01*
X16834225Y-54588278D01*
X16784832Y-54692637D01*
X16715207Y-54811229D01*
X16631753Y-54935309D01*
X16540875Y-55056136D01*
X16448979Y-55164968D01*
X16362469Y-55253062D01*
X16287750Y-55311675D01*
X16228305Y-55339443D01*
X16144735Y-55346132D01*
X16068565Y-55311550D01*
X16018714Y-55273209D01*
X16061711Y-55190313D01*
X16074725Y-55167088D01*
X16124029Y-55093178D01*
X16191550Y-55004357D01*
X16272344Y-54905969D01*
X16361467Y-54803359D01*
X16453975Y-54701871D01*
X16544926Y-54606850D01*
X16629374Y-54523641D01*
X16702377Y-54457589D01*
X16758991Y-54414038D01*
X16794271Y-54398333D01*
X16805530Y-54399559D01*
G37*
X16805530Y-54399559D02*
X16840455Y-54425960D01*
X16856281Y-54478404D01*
X16848881Y-54545752D01*
X16834225Y-54588278D01*
X16784832Y-54692637D01*
X16715207Y-54811229D01*
X16631753Y-54935309D01*
X16540875Y-55056136D01*
X16448979Y-55164968D01*
X16362469Y-55253062D01*
X16287750Y-55311675D01*
X16228305Y-55339443D01*
X16144735Y-55346132D01*
X16068565Y-55311550D01*
X16018714Y-55273209D01*
X16061711Y-55190313D01*
X16074725Y-55167088D01*
X16124029Y-55093178D01*
X16191550Y-55004357D01*
X16272344Y-54905969D01*
X16361467Y-54803359D01*
X16453975Y-54701871D01*
X16544926Y-54606850D01*
X16629374Y-54523641D01*
X16702377Y-54457589D01*
X16758991Y-54414038D01*
X16794271Y-54398333D01*
X16805530Y-54399559D01*
G36*
X16679333Y-54035324D02*
G01*
X16675975Y-54049750D01*
X16647505Y-54098844D01*
X16593925Y-54168470D01*
X16519977Y-54253757D01*
X16430402Y-54349834D01*
X16329941Y-54451830D01*
X16223337Y-54554872D01*
X16115329Y-54654089D01*
X16010660Y-54744611D01*
X15914072Y-54821565D01*
X15903497Y-54829501D01*
X15806256Y-54898416D01*
X15737978Y-54937965D01*
X15697711Y-54948602D01*
X15684500Y-54930781D01*
X15684856Y-54928618D01*
X15699152Y-54898239D01*
X15730155Y-54844452D01*
X15772118Y-54777323D01*
X15772490Y-54776748D01*
X15835141Y-54692065D01*
X15922779Y-54589781D01*
X16027058Y-54478237D01*
X16139629Y-54365776D01*
X16252145Y-54260738D01*
X16356258Y-54171466D01*
X16443621Y-54106301D01*
X16477221Y-54085100D01*
X16554975Y-54043883D01*
X16619321Y-54020420D01*
X16663145Y-54016853D01*
X16679333Y-54035324D01*
G37*
X16679333Y-54035324D02*
X16675975Y-54049750D01*
X16647505Y-54098844D01*
X16593925Y-54168470D01*
X16519977Y-54253757D01*
X16430402Y-54349834D01*
X16329941Y-54451830D01*
X16223337Y-54554872D01*
X16115329Y-54654089D01*
X16010660Y-54744611D01*
X15914072Y-54821565D01*
X15903497Y-54829501D01*
X15806256Y-54898416D01*
X15737978Y-54937965D01*
X15697711Y-54948602D01*
X15684500Y-54930781D01*
X15684856Y-54928618D01*
X15699152Y-54898239D01*
X15730155Y-54844452D01*
X15772118Y-54777323D01*
X15772490Y-54776748D01*
X15835141Y-54692065D01*
X15922779Y-54589781D01*
X16027058Y-54478237D01*
X16139629Y-54365776D01*
X16252145Y-54260738D01*
X16356258Y-54171466D01*
X16443621Y-54106301D01*
X16477221Y-54085100D01*
X16554975Y-54043883D01*
X16619321Y-54020420D01*
X16663145Y-54016853D01*
X16679333Y-54035324D01*
G36*
X17637274Y-56305357D02*
G01*
X17697089Y-56329219D01*
X17762977Y-56372577D01*
X17823814Y-56426118D01*
X17868475Y-56480526D01*
X17885833Y-56526486D01*
X17885822Y-56526859D01*
X17867495Y-56533311D01*
X17820646Y-56524142D01*
X17754705Y-56501957D01*
X17679100Y-56469363D01*
X17675003Y-56467380D01*
X17607597Y-56425352D01*
X17566027Y-56381547D01*
X17552592Y-56342352D01*
X17569591Y-56314152D01*
X17619324Y-56303333D01*
X17637274Y-56305357D01*
G37*
X17637274Y-56305357D02*
X17697089Y-56329219D01*
X17762977Y-56372577D01*
X17823814Y-56426118D01*
X17868475Y-56480526D01*
X17885833Y-56526486D01*
X17885822Y-56526859D01*
X17867495Y-56533311D01*
X17820646Y-56524142D01*
X17754705Y-56501957D01*
X17679100Y-56469363D01*
X17675003Y-56467380D01*
X17607597Y-56425352D01*
X17566027Y-56381547D01*
X17552592Y-56342352D01*
X17569591Y-56314152D01*
X17619324Y-56303333D01*
X17637274Y-56305357D01*
G36*
X17105756Y-56188839D02*
G01*
X17119333Y-56227954D01*
X17101690Y-56272761D01*
X17075053Y-56293562D01*
X17029747Y-56293514D01*
X16988878Y-56256105D01*
X16977921Y-56220960D01*
X17000843Y-56184419D01*
X17028677Y-56165998D01*
X17071892Y-56164994D01*
X17105756Y-56188839D01*
G37*
X17105756Y-56188839D02*
X17119333Y-56227954D01*
X17101690Y-56272761D01*
X17075053Y-56293562D01*
X17029747Y-56293514D01*
X16988878Y-56256105D01*
X16977921Y-56220960D01*
X17000843Y-56184419D01*
X17028677Y-56165998D01*
X17071892Y-56164994D01*
X17105756Y-56188839D01*
G36*
X17229945Y-54588833D02*
G01*
X17240004Y-54610874D01*
X17249637Y-54670741D01*
X17244611Y-54732473D01*
X17225433Y-54775100D01*
X17211643Y-54787655D01*
X17179596Y-54797940D01*
X17146148Y-54770133D01*
X17131626Y-54739530D01*
X17127806Y-54679682D01*
X17142201Y-54619917D01*
X17172061Y-54580384D01*
X17204608Y-54568514D01*
X17229945Y-54588833D01*
G37*
X17229945Y-54588833D02*
X17240004Y-54610874D01*
X17249637Y-54670741D01*
X17244611Y-54732473D01*
X17225433Y-54775100D01*
X17211643Y-54787655D01*
X17179596Y-54797940D01*
X17146148Y-54770133D01*
X17131626Y-54739530D01*
X17127806Y-54679682D01*
X17142201Y-54619917D01*
X17172061Y-54580384D01*
X17204608Y-54568514D01*
X17229945Y-54588833D01*
G36*
X14084947Y-55235970D02*
G01*
X14105421Y-55258859D01*
X14115727Y-55291772D01*
X14091956Y-55326244D01*
X14084874Y-55332482D01*
X14039630Y-55347589D01*
X13996870Y-55333196D01*
X13974007Y-55294057D01*
X13975441Y-55265635D01*
X14000660Y-55228739D01*
X14042151Y-55216239D01*
X14084947Y-55235970D01*
G37*
X14084947Y-55235970D02*
X14105421Y-55258859D01*
X14115727Y-55291772D01*
X14091956Y-55326244D01*
X14084874Y-55332482D01*
X14039630Y-55347589D01*
X13996870Y-55333196D01*
X13974007Y-55294057D01*
X13975441Y-55265635D01*
X14000660Y-55228739D01*
X14042151Y-55216239D01*
X14084947Y-55235970D01*
G36*
X15663333Y-52621037D02*
G01*
X15656774Y-52647297D01*
X15629314Y-52707620D01*
X15584384Y-52790346D01*
X15526257Y-52888688D01*
X15459208Y-52995857D01*
X15387511Y-53105065D01*
X15315442Y-53209524D01*
X15247274Y-53302445D01*
X15187283Y-53377042D01*
X15165111Y-53402020D01*
X15113222Y-53451797D01*
X15081451Y-53466337D01*
X15070667Y-53445130D01*
X15079099Y-53412345D01*
X15108522Y-53347311D01*
X15155242Y-53260041D01*
X15215271Y-53157126D01*
X15284622Y-53045160D01*
X15359306Y-52930734D01*
X15435338Y-52820442D01*
X15508729Y-52720875D01*
X15518629Y-52708205D01*
X15575233Y-52644254D01*
X15621198Y-52606484D01*
X15652055Y-52597783D01*
X15663333Y-52621037D01*
G37*
X15663333Y-52621037D02*
X15656774Y-52647297D01*
X15629314Y-52707620D01*
X15584384Y-52790346D01*
X15526257Y-52888688D01*
X15459208Y-52995857D01*
X15387511Y-53105065D01*
X15315442Y-53209524D01*
X15247274Y-53302445D01*
X15187283Y-53377042D01*
X15165111Y-53402020D01*
X15113222Y-53451797D01*
X15081451Y-53466337D01*
X15070667Y-53445130D01*
X15079099Y-53412345D01*
X15108522Y-53347311D01*
X15155242Y-53260041D01*
X15215271Y-53157126D01*
X15284622Y-53045160D01*
X15359306Y-52930734D01*
X15435338Y-52820442D01*
X15508729Y-52720875D01*
X15518629Y-52708205D01*
X15575233Y-52644254D01*
X15621198Y-52606484D01*
X15652055Y-52597783D01*
X15663333Y-52621037D01*
G36*
X17472358Y-55787969D02*
G01*
X17491793Y-55811345D01*
X17500952Y-55866351D01*
X17501802Y-55878457D01*
X17502104Y-55937956D01*
X17496325Y-55977476D01*
X17492472Y-55985673D01*
X17463171Y-56006055D01*
X17426402Y-55994238D01*
X17394760Y-55953230D01*
X17382648Y-55907732D01*
X17387780Y-55848564D01*
X17412606Y-55802992D01*
X17452427Y-55784750D01*
X17472358Y-55787969D01*
G37*
X17472358Y-55787969D02*
X17491793Y-55811345D01*
X17500952Y-55866351D01*
X17501802Y-55878457D01*
X17502104Y-55937956D01*
X17496325Y-55977476D01*
X17492472Y-55985673D01*
X17463171Y-56006055D01*
X17426402Y-55994238D01*
X17394760Y-55953230D01*
X17382648Y-55907732D01*
X17387780Y-55848564D01*
X17412606Y-55802992D01*
X17452427Y-55784750D01*
X17472358Y-55787969D01*
G36*
X23484417Y-54009679D02*
G01*
X23490482Y-54012960D01*
X23511181Y-54046695D01*
X23515780Y-54093612D01*
X23501163Y-54131115D01*
X23492466Y-54138026D01*
X23452068Y-54143590D01*
X23413615Y-54121015D01*
X23393313Y-54078245D01*
X23398639Y-54034643D01*
X23431303Y-54005458D01*
X23484417Y-54009679D01*
G37*
X23484417Y-54009679D02*
X23490482Y-54012960D01*
X23511181Y-54046695D01*
X23515780Y-54093612D01*
X23501163Y-54131115D01*
X23492466Y-54138026D01*
X23452068Y-54143590D01*
X23413615Y-54121015D01*
X23393313Y-54078245D01*
X23398639Y-54034643D01*
X23431303Y-54005458D01*
X23484417Y-54009679D01*
%TD*%
M02*
